<svg width="160" height="53" viewBox="0 0 160 53" fill="none" xmlns="http://www.w3.org/2000/svg">
<path d="M36.2031 0.280468H45.0952V36.0781H36.2031V0.280468ZM61.1278 24.1086L65.7643 36.0781H55.412L51.474 23.3262C51.0931 22.2074 50.6489 21.2556 50.1413 20.4724C58.3333 20.8089 60.4294 22.3752 61.1278 24.1086ZM51.859 8.95039C51.859 5.03539 51.3514 2.12649 50.5263 0.393166C57.7031 1.06363 61.387 3.91658 61.387 9.23009C61.387 13.5375 58.9091 16.838 50.2721 17.5076C51.2873 15.7743 51.859 13.09 51.859 8.95039Z" fill="#5CA79F"/>
<path d="M81.5547 0.280457H91.4635L102.514 18.962V36.0781H93.6222V20.5292L81.5547 0.280457Z" fill="#5CA79F"/>
<path d="M106.467 18.1758C106.467 9.61856 112.247 3.29813 119.867 0.836761C116.755 5.42387 116.311 13.0301 116.311 18.1758C116.311 23.4342 116.755 31.0972 119.867 35.5156C112.183 33.0551 106.467 26.7898 106.467 18.1758Z" fill="#5CA79F"/>
<path d="M123.61 36.0771C129.07 35.9586 132.348 34.3816 132.348 30.961C132.348 28.5432 130.376 27.4738 129.283 27.4738C127.281 27.4738 126.166 28.4026 126.128 29.8389C126.077 31.7894 125.946 34.2483 125.127 34.9961C124.307 35.7439 122.545 36.1001 123.61 36.0771Z" fill="#5CA79F"/>
<path d="M123.61 0.896713C129.07 1.01517 132.348 2.5922 132.348 6.01278C132.348 8.43055 130.376 9.5 129.283 9.5C127.281 9.5 126.166 8.57123 126.128 7.13488C126.077 5.18437 125.946 2.72629 125.127 1.97768C124.307 1.22989 122.545 0.873678 123.61 0.896713Z" fill="#5CA79F"/>
<path d="M8.7382 0.279526C3.27826 0.397987 0 1.97501 0 5.39559C0 7.81337 1.9719 8.88281 3.06438 8.88281C5.06671 8.88281 6.18222 7.95404 6.22007 6.51769C6.27107 4.56718 6.40187 2.1091 7.22123 1.36049C8.04059 0.6127 9.80271 0.256491 8.7382 0.279526Z" fill="#5CA79F"/>
<path d="M32.4455 0.280457H22.1459H17.7003H13.2539V36.0781H22.1459V1.40255H32.4455V0.280457Z" fill="#5CA79F"/>
<path d="M88.8799 36.0781L74.1454 0.00075531H69.6998L67.0961 6.82464L73.1409 22.1235H65.3809V23.2456H73.5843L78.656 36.0781H88.8799Z" fill="#5CA79F"/>
<path d="M0 48.9922H20.0604V48.58H0V48.9922Z" fill="#5CA79F"/>
<path d="M140.611 48.9922H160V48.58H140.611V48.9922Z" fill="#5CA79F"/>
<path d="M144.65 18.185H151.466V17.0629H144.65V1.41036V0.288269H142.473H135.758V36.0859H143.384H144.65H158.129V34.9638H144.65V18.185Z" fill="#5CA79F"/>
<path d="M151.163 8.7849C151.282 3.32496 152.859 0.0466948 156.279 0.0466948C158.697 0.0466948 159.766 2.01859 159.766 3.11107C159.766 5.1134 158.838 6.22892 157.401 6.26676C155.451 6.31859 152.993 6.44857 152.244 7.26793C151.496 8.08729 151.14 9.84941 151.163 8.7849Z" fill="#5CA79F"/>
<path d="M30.6928 52.0547H26.916V45.8305H27.3882V51.6351H30.6928V52.0547Z" fill="#5CA79F"/>
<path d="M37.8349 52.0547H37.3322L36.7934 50.5418H33.8755L33.3366 52.0547H32.834L35.1242 45.8305H35.5446L37.8349 52.0547ZM36.6396 50.1223L35.3348 46.45L34.0293 50.1223H36.6396Z" fill="#5CA79F"/>
<path d="M44.0515 52.0547H40.2656V51.557L43.5439 46.2492H40.3972V45.8305H44.0515L44.0556 46.2525L40.751 51.6351H44.0515V52.0547Z" fill="#5CA79F"/>
<path d="M51.0893 52.0547H47.3125V45.8305H51.0893V46.2492H47.7847V48.7065H50.5998V49.1252H47.7847V51.6351H51.0893V52.0547Z" fill="#5CA79F"/>
<path d="M58.5117 52.0547H57.9597L56.4707 49.1877H54.7613V52.0547H54.2891V45.8305H56.6583C57.1955 45.8305 57.6257 45.9753 57.9523 46.2673C58.2789 46.5586 58.4418 46.9691 58.4418 47.4997C58.4418 47.9546 58.3151 48.3289 58.0617 48.6234C57.8084 48.9179 57.4571 49.103 57.0079 49.1787L58.5117 52.0547ZM57.9696 47.5087C57.9696 47.0949 57.8421 46.7774 57.5854 46.5553C57.346 46.3512 57.017 46.2492 56.5974 46.2492H54.7613V48.7674H56.5974C57.017 48.7674 57.351 48.6613 57.5986 48.4482C57.8454 48.2351 57.9696 47.9225 57.9696 47.5087Z" fill="#5CA79F"/>
<path d="M70.5815 52.0497H69.9818L69.378 51.3151C68.8358 51.84 68.1983 52.1016 67.4637 52.1016C66.9034 52.1016 66.4469 51.9477 66.0915 51.6392C65.718 51.3184 65.5312 50.8816 65.5312 50.3271C65.5312 49.8903 65.6769 49.5053 65.9689 49.1737C66.1433 48.9755 66.4732 48.7155 66.9569 48.3955C66.4962 47.8476 66.2659 47.3869 66.2659 47.0143C66.2659 46.6581 66.3885 46.3627 66.6328 46.1266C66.8779 45.8905 67.1782 45.7729 67.5336 45.7729C67.8898 45.7729 68.1892 45.8922 68.4344 46.1308C68.6787 46.3693 68.8013 46.6663 68.8013 47.0217C68.8013 47.4404 68.5619 47.8139 68.0823 48.1389L67.6175 48.4564L69.4035 50.6167C69.6552 50.2374 69.7802 49.7216 69.7802 49.0684H70.2352C70.2352 49.8911 70.0534 50.5245 69.6914 50.9671L70.5815 52.0497ZM69.1164 50.9918L67.2276 48.7098C66.785 49.0191 66.5077 49.2346 66.3967 49.3572C66.1351 49.6369 66.0043 49.9512 66.0043 50.3016C66.0043 50.7212 66.1392 51.056 66.4107 51.3069C66.6813 51.557 67.0301 51.6828 67.4546 51.6828C68.0436 51.6828 68.5973 51.4517 69.1164 50.9918ZM68.3464 47.0233C68.3464 46.7897 68.2699 46.5931 68.1185 46.4327C67.9655 46.2731 67.7722 46.1925 67.5385 46.1925C67.3041 46.1925 67.1116 46.2681 66.9627 46.4195C66.8129 46.5717 66.7381 46.7634 66.7381 46.9962C66.7381 47.2652 66.9421 47.6461 67.3501 48.1421C67.3559 48.1356 67.476 48.0549 67.7088 47.897C68.1333 47.6115 68.3464 47.3203 68.3464 47.0233Z" fill="#5CA79F"/>
<path d="M81.67 50.3789C81.67 50.9564 81.457 51.3966 81.0316 51.6993C80.659 51.9675 80.172 52.1016 79.5714 52.1016C78.7381 52.1016 78.0479 51.8276 77.5 51.2797L77.8315 50.9474C78.0997 51.2164 78.3663 51.4048 78.632 51.5158C78.8969 51.6269 79.2193 51.682 79.5986 51.682C80.0519 51.682 80.4221 51.5833 80.7083 51.3842C81.0341 51.1621 81.1978 50.8322 81.1978 50.3946C81.1978 50.0038 81.0843 49.7109 80.8572 49.5184C80.6705 49.3613 80.3711 49.2503 79.9573 49.1861L79.2309 49.0726C78.1639 48.9039 77.6308 48.3717 77.6308 47.475C77.6308 46.9222 77.82 46.4935 78.1984 46.1908C78.5423 45.9111 78.9972 45.7721 79.5624 45.7721C80.2394 45.7721 80.8359 45.9967 81.3549 46.445L81.0481 46.751C80.6162 46.3603 80.1103 46.1653 79.5311 46.1653C79.105 46.1653 78.7636 46.2706 78.5061 46.4812C78.2256 46.7091 78.0857 47.034 78.0857 47.4544C78.0857 48.1282 78.5045 48.528 79.3444 48.6563L80.0173 48.7616C80.5191 48.8381 80.8885 48.9747 81.1279 49.1729C81.489 49.4707 81.67 49.8722 81.67 50.3789Z" fill="#5CA79F"/>
<path d="M89.4064 52.0547H88.8494L86.8397 48.5617L85.3589 50.3584V52.0547H84.8867V45.8305H85.3589V49.72L88.5146 45.8305H89.088L87.1597 48.208L89.4064 52.0547Z" fill="#5CA79F"/>
<path d="M92.2734 52.0547H92.7456V45.8305H92.2734V52.0547Z" fill="#5CA79F"/>
<path d="M100.956 52.0547H100.48L96.891 46.6507V52.0547H96.418V45.8305H96.891L100.484 51.2246V45.8305H100.956V52.0547Z" fill="#5CA79F"/>
<path d="M112.608 50.2835C112.51 50.8371 112.272 51.2789 111.896 51.6071C111.52 51.937 111.052 52.1016 110.493 52.1016C109.881 52.1016 109.362 51.8893 108.937 51.464C108.674 51.2008 108.508 50.8832 108.438 50.5106C108.386 50.2309 108.359 49.7068 108.359 48.9368C108.359 48.1676 108.386 47.6428 108.438 47.3631C108.508 46.9904 108.674 46.6721 108.937 46.4105C109.362 45.9843 109.881 45.7729 110.493 45.7729C111.058 45.7729 111.527 45.9358 111.901 46.2616C112.274 46.5882 112.51 47.0316 112.608 47.591H112.128C112.034 47.1657 111.845 46.8259 111.559 46.5717C111.274 46.3191 110.918 46.1916 110.493 46.1916C110.026 46.1916 109.633 46.3529 109.313 46.6721C109.097 46.8884 108.96 47.1533 108.902 47.4684C108.855 47.7193 108.832 48.2088 108.832 48.9368C108.832 49.6657 108.855 50.1552 108.902 50.4053C108.96 50.7203 109.097 50.986 109.313 51.2008C109.633 51.5216 110.026 51.682 110.493 51.682C110.918 51.682 111.276 51.5553 111.568 51.3019C111.86 51.0486 112.051 50.7088 112.145 50.2835H112.608Z" fill="#5CA79F"/>
<path d="M120.153 52.0547H119.651L119.112 50.5418H116.194L115.655 52.0547H115.152L117.443 45.8305H117.863L120.153 52.0547ZM118.958 50.1223L117.653 46.45L116.348 50.1223H118.958Z" fill="#5CA79F"/>
<path d="M127.217 52.0469H126.665L125.176 49.1799H123.466V52.0469H122.994V45.8227H125.363C125.9 45.8227 126.331 45.9675 126.657 46.2595C126.984 46.5507 127.147 46.9612 127.147 47.4919C127.147 47.9468 127.02 48.3211 126.767 48.6156C126.513 48.9101 126.162 49.0952 125.713 49.1709L127.217 52.0469ZM126.675 47.5009C126.675 47.0871 126.547 46.7696 126.291 46.5475C126.051 46.3434 125.722 46.2414 125.303 46.2414H123.466V48.7596H125.303C125.722 48.7596 126.056 48.6534 126.304 48.4404C126.55 48.2273 126.675 47.9147 126.675 47.5009Z" fill="#5CA79F"/>
<path d="M134.263 52.0547H130.486V45.8305H134.263V46.2492H130.959V48.7065H133.774V49.1252H130.959V51.6351H134.263V52.0547Z" fill="#5CA79F"/>
</svg>
