<svg width="24" height="24" viewBox="0 0 24 24" fill="none" xmlns="http://www.w3.org/2000/svg">
<path d="M19.24 5.5825H18.84L15.46 2.2025C15.19 1.9325 14.75 1.9325 14.47 2.2025C14.2 2.4725 14.2 2.9125 14.47 3.1925L16.86 5.5825H7.14L9.53 3.1925C9.8 2.9225 9.8 2.4825 9.53 2.2025C9.26 1.9325 8.82 1.9325 8.54 2.2025L5.17 5.5825H4.77C3.87 5.5825 2 5.5825 2 8.1425C2 9.1125 2.2 9.7525 2.62 10.1725C2.86 10.4225 3.15 10.5525 3.46 10.6225C3.75 10.6925 4.06 10.7025 4.36 10.7025H19.64C19.95 10.7025 20.24 10.6825 20.52 10.6225C21.36 10.4225 22 9.8225 22 8.1425C22 5.5825 20.13 5.5825 19.24 5.5825Z" />
<path d="M19.0506 12H4.87064C4.25064 12 3.78064 12.55 3.88064 13.16L4.72064 18.3C5.00064 20.02 5.75064 22 9.08064 22H14.6906C18.0606 22 18.6606 20.31 19.0206 18.42L20.0306 13.19C20.1506 12.57 19.6806 12 19.0506 12ZM10.6106 18.45C10.6106 18.84 10.3006 19.15 9.92064 19.15C9.53064 19.15 9.22064 18.84 9.22064 18.45V15.15C9.22064 14.77 9.53064 14.45 9.92064 14.45C10.3006 14.45 10.6106 14.77 10.6106 15.15V18.45ZM14.8906 18.45C14.8906 18.84 14.5806 19.15 14.1906 19.15C13.8106 19.15 13.4906 18.84 13.4906 18.45V15.15C13.4906 14.77 13.8106 14.45 14.1906 14.45C14.5806 14.45 14.8906 14.77 14.8906 15.15V18.45Z" />
</svg>
