<svg width="56" height="56" viewBox="0 0 56 56" fill="none" xmlns="http://www.w3.org/2000/svg">
<path d="M41.0665 12.3877L27.8831 5.29438C26.4831 4.54771 24.8265 4.54771 23.4265 5.29438L10.2665 12.3877C9.30979 12.9244 8.70312 13.951 8.70312 15.071C8.70312 16.2144 9.28646 17.241 10.2665 17.7544L23.4498 24.8477C24.1498 25.221 24.9198 25.4077 25.6665 25.4077C26.4131 25.4077 27.2065 25.221 27.8831 24.8477L41.0665 17.7544C42.0231 17.241 42.6298 16.2144 42.6298 15.071C42.6298 13.951 42.0231 12.9244 41.0665 12.3877Z" />
<path d="M21.2794 27.3182L9.02935 21.2048C8.07268 20.7148 6.99935 20.7848 6.08935 21.3215C5.20268 21.8815 4.66602 22.8382 4.66602 23.8882V35.4615C4.66602 37.4682 5.78602 39.2648 7.58268 40.1748L19.8327 46.2882C20.2527 46.4982 20.7194 46.6148 21.186 46.6148C21.7227 46.6148 22.2827 46.4515 22.7727 46.1715C23.6594 45.6115 24.196 44.6548 24.196 43.6048V32.0315C24.1727 30.0248 23.0527 28.2282 21.2794 27.3182Z" />
<path d="M46.6668 23.8882V29.6282C45.5468 29.3015 44.3568 29.1615 43.1668 29.1615C39.9935 29.1615 36.8902 30.2582 34.4402 32.2182C31.0802 34.8548 29.1668 38.8448 29.1668 43.1615C29.1668 44.3048 29.3068 45.4482 29.6102 46.5448C29.2602 46.4982 28.9102 46.3582 28.5835 46.1482C27.6968 45.6115 27.1602 44.6548 27.1602 43.6048V32.0315C27.1602 30.0248 28.2802 28.2282 30.0535 27.3182L42.3035 21.2048C43.2602 20.7148 44.3335 20.7848 45.2435 21.3215C46.1302 21.8815 46.6668 22.8382 46.6668 23.8882Z" />
<path d="M51.286 36.5609C49.3727 34.2043 46.456 32.7109 43.166 32.7109C40.6927 32.7109 38.406 33.5743 36.6093 35.0209C34.1827 36.9343 32.666 39.8976 32.666 43.2109C32.666 45.1709 33.226 47.0376 34.1827 48.6243C34.8127 49.6743 35.606 50.5843 36.5393 51.3309H36.5627C38.3593 52.8243 40.6693 53.7109 43.166 53.7109C45.826 53.7109 48.2293 52.7309 50.0727 51.0976C50.8893 50.3976 51.5893 49.5576 52.1493 48.6243C53.106 47.0376 53.666 45.1709 53.666 43.2109C53.666 40.6909 52.7793 38.3576 51.286 36.5609ZM48.4393 41.9043L42.8393 47.0843C42.5127 47.3876 42.0693 47.5509 41.6493 47.5509C41.206 47.5509 40.7627 47.3876 40.4127 47.0376L37.8227 44.4476C37.146 43.7709 37.146 42.6509 37.8227 41.9743C38.4993 41.2976 39.6193 41.2976 40.296 41.9743L41.696 43.3743L46.0593 39.3376C46.7593 38.6843 47.8793 38.7309 48.5327 39.4309C49.2093 40.1543 49.1627 41.2509 48.4393 41.9043Z" />
</svg>
