<svg width="56" height="56" viewBox="0 0 56 56" fill="none" xmlns="http://www.w3.org/2000/svg">
<path d="M39.0826 8.30406V4.66406C39.0826 3.7074 38.2892 2.91406 37.3326 2.91406C36.3759 2.91406 35.5826 3.7074 35.5826 4.66406V8.16406H20.4159V4.66406C20.4159 3.7074 19.6226 2.91406 18.6659 2.91406C17.7092 2.91406 16.9159 3.7074 16.9159 4.66406V8.30406C10.6159 8.8874 7.55923 12.6441 7.09257 18.2207C7.0459 18.8974 7.6059 19.4574 8.25923 19.4574H47.7392C48.4159 19.4574 48.9759 18.8741 48.9059 18.2207C48.4392 12.6441 45.3826 8.8874 39.0826 8.30406Z" />
<path d="M44.3333 35C39.1767 35 35 39.1767 35 44.3333C35 46.0833 35.49 47.74 36.3533 49.14C37.9633 51.8467 40.9267 53.6667 44.3333 53.6667C47.74 53.6667 50.7033 51.8467 52.3133 49.14C53.1767 47.74 53.6667 46.0833 53.6667 44.3333C53.6667 39.1767 49.49 35 44.3333 35ZM49.1633 43.33L44.1933 47.9267C43.8667 48.23 43.4233 48.3933 43.0033 48.3933C42.56 48.3933 42.1167 48.23 41.7667 47.88L39.4567 45.57C38.78 44.8933 38.78 43.7733 39.4567 43.0967C40.1333 42.42 41.2533 42.42 41.93 43.0967L43.05 44.2167L46.7833 40.7633C47.4833 40.11 48.6033 40.1567 49.2567 40.8567C49.91 41.5567 49.8633 42.6533 49.1633 43.33Z" />
<path d="M46.6667 22.9609H9.33333C8.05 22.9609 7 24.0109 7 25.2943V39.6676C7 46.6676 10.5 51.3343 18.6667 51.3343H30.17C31.78 51.3343 32.9 49.7709 32.3867 48.2543C31.92 46.9009 31.5233 45.4076 31.5233 44.3343C31.5233 37.2643 37.2867 31.5009 44.3567 31.5009C45.0333 31.5009 45.71 31.5476 46.3633 31.6643C47.7633 31.8743 49.0233 30.7776 49.0233 29.3776V25.3176C49 24.0109 47.95 22.9609 46.6667 22.9609ZM21.49 42.4909C21.0467 42.9109 20.44 43.1676 19.8333 43.1676C19.2267 43.1676 18.62 42.9109 18.1767 42.4909C17.7567 42.0476 17.5 41.4409 17.5 40.8343C17.5 40.2276 17.7567 39.6209 18.1767 39.1776C18.41 38.9676 18.6433 38.8043 18.9467 38.6876C19.81 38.3143 20.8367 38.5243 21.49 39.1776C21.91 39.6209 22.1667 40.2276 22.1667 40.8343C22.1667 41.4409 21.91 42.0476 21.49 42.4909ZM21.49 34.3243C21.3733 34.4176 21.2567 34.5109 21.14 34.6043C21 34.6976 20.86 34.7676 20.72 34.8143C20.58 34.8843 20.44 34.9309 20.3 34.9543C20.1367 34.9776 19.9733 35.0009 19.8333 35.0009C19.2267 35.0009 18.62 34.7443 18.1767 34.3243C17.7567 33.8809 17.5 33.2743 17.5 32.6676C17.5 32.0609 17.7567 31.4543 18.1767 31.0109C18.7133 30.4743 19.53 30.2176 20.3 30.3809C20.44 30.4043 20.58 30.4509 20.72 30.5209C20.86 30.5676 21 30.6376 21.14 30.7309C21.2567 30.8243 21.3733 30.9176 21.49 31.0109C21.91 31.4543 22.1667 32.0609 22.1667 32.6676C22.1667 33.2743 21.91 33.8809 21.49 34.3243ZM29.6567 34.3243C29.2133 34.7443 28.6067 35.0009 28 35.0009C27.3933 35.0009 26.7867 34.7443 26.3433 34.3243C25.9233 33.8809 25.6667 33.2743 25.6667 32.6676C25.6667 32.0609 25.9233 31.4543 26.3433 31.0109C27.23 30.1476 28.7933 30.1476 29.6567 31.0109C30.0767 31.4543 30.3333 32.0609 30.3333 32.6676C30.3333 33.2743 30.0767 33.8809 29.6567 34.3243Z" />
</svg>
