<svg width="18" height="19" viewBox="0 0 18 19" fill="none" xmlns="http://www.w3.org/2000/svg">
<path d="M12.1875 17.7578C12.9124 17.7578 13.5 17.1702 13.5 16.4453C13.5 15.7204 12.9124 15.1328 12.1875 15.1328C11.4626 15.1328 10.875 15.7204 10.875 16.4453C10.875 17.1702 11.4626 17.7578 12.1875 17.7578Z" fill="white"/>
<path d="M6.1875 17.7578C6.91237 17.7578 7.5 17.1702 7.5 16.4453C7.5 15.7204 6.91237 15.1328 6.1875 15.1328C5.46263 15.1328 4.875 15.7204 4.875 16.4453C4.875 17.1702 5.46263 17.7578 6.1875 17.7578Z" fill="white"/>
<path d="M3.63 3.83781L3.48 5.67531C3.45 6.02781 3.7275 6.32031 4.08 6.32031H15.5625C15.8775 6.32031 16.14 6.08031 16.1625 5.76531C16.26 4.43781 15.2475 3.35781 13.92 3.35781H4.7025C4.6275 3.02781 4.4775 2.71281 4.245 2.45031C3.87 2.05281 3.345 1.82031 2.805 1.82031H1.5C1.1925 1.82031 0.9375 2.07531 0.9375 2.38281C0.9375 2.69031 1.1925 2.94531 1.5 2.94531H2.805C3.0375 2.94531 3.255 3.04281 3.4125 3.20781C3.57 3.38031 3.645 3.60531 3.63 3.83781Z" fill="white"/>
<path d="M15.3825 7.44531H3.87754C3.56254 7.44531 3.30754 7.68531 3.27754 7.99281L3.00754 11.2553C2.90254 12.5378 3.90754 13.6328 5.19004 13.6328H13.53C14.655 13.6328 15.645 12.7103 15.7275 11.5853L15.975 8.08281C16.005 7.73781 15.735 7.44531 15.3825 7.44531Z" fill="white"/>
</svg>
