<svg width="40" height="40" viewBox="0 0 40 40" fill="none" xmlns="http://www.w3.org/2000/svg">
<path d="M28.38 0H11.62C4.34 0 0 4.34 0 11.62V28.36C0 35.66 4.34 40 11.62 40H28.36C35.64 40 39.98 35.66 39.98 28.38V11.62C40 4.34 35.66 0 28.38 0ZM14.22 29.8C14.22 30.36 13.78 30.8 13.22 30.8H7.64C7.08 30.8 6.64 30.36 6.64 29.8V20.56C6.64 19.3 7.66 18.28 8.92 18.28H13.22C13.78 18.28 14.22 18.72 14.22 19.28V29.8ZM23.78 29.8C23.78 30.36 23.34 30.8 22.78 30.8H17.2C16.64 30.8 16.2 30.36 16.2 29.8V11.48C16.2 10.22 17.22 9.2 18.48 9.2H21.52C22.78 9.2 23.8 10.22 23.8 11.48V29.8H23.78ZM33.36 29.8C33.36 30.36 32.92 30.8 32.36 30.8H26.78C26.22 30.8 25.78 30.36 25.78 29.8V22.7C25.78 22.14 26.22 21.7 26.78 21.7H31.08C32.34 21.7 33.36 22.72 33.36 23.98V29.8Z" />
</svg>
