<!-- Generated by IcoMoon.io -->
<svg version="1.1" xmlns="http://www.w3.org/2000/svg" width="24" height="24" viewBox="0 0 1024 1024">
<g id="icomoon-ignore">
</g>
<path d="M327.253 85.333h369.92c144.64 0 241.493 101.547 241.493 252.587v348.629c0 150.571-96.853 252.117-241.493 252.117h-369.92c-144.64 0-241.92-101.547-241.92-252.117v-348.629c0-151.040 97.28-252.587 241.92-252.587zM487.68 639.573l202.667-202.667c14.507-14.507 14.507-37.973 0-52.907-14.507-14.507-38.4-14.507-52.907 0l-176.213 176.213-74.667-74.667c-14.507-14.507-38.4-14.507-52.907 0s-14.507 37.973 0 52.907l101.547 101.12c7.253 7.253 16.64 10.667 26.027 10.667 9.813 0 19.2-3.413 26.453-10.667z"></path>
</svg>
