<svg width="24" height="24" viewBox="0 0 24 24" fill="none" xmlns="http://www.w3.org/2000/svg">
<path d="M21.5309 10.8728L20.0109 9.35281C19.7509 9.09281 19.5409 8.58281 19.5409 8.22281V6.06281C19.5409 5.18281 18.8209 4.46281 17.9409 4.46281H15.7909C15.4309 4.46281 14.9209 4.25281 14.6609 3.99281L13.1409 2.47281C12.5209 1.85281 11.5009 1.85281 10.8809 2.47281L9.34086 3.99281C9.09086 4.25281 8.58086 4.46281 8.21086 4.46281H6.06086C5.18086 4.46281 4.46086 5.18281 4.46086 6.06281V8.21281C4.46086 8.57281 4.25086 9.08281 3.99086 9.34281L2.47086 10.8628C1.85086 11.4828 1.85086 12.5028 2.47086 13.1228L3.99086 14.6428C4.25086 14.9028 4.46086 15.4128 4.46086 15.7728V17.9228C4.46086 18.8028 5.18086 19.5228 6.06086 19.5228H8.21086C8.57086 19.5228 9.08086 19.7328 9.34086 19.9928L10.8609 21.5128C11.4809 22.1328 12.5009 22.1328 13.1209 21.5128L14.6409 19.9928C14.9009 19.7328 15.4109 19.5228 15.7709 19.5228H17.9209C18.8009 19.5228 19.5209 18.8028 19.5209 17.9228V15.7728C19.5209 15.4128 19.7309 14.9028 19.9909 14.6428L21.5109 13.1228C22.1609 12.5128 22.1609 11.4928 21.5309 10.8728ZM8.00086 9.00281C8.00086 8.45281 8.45086 8.00281 9.00086 8.00281C9.55086 8.00281 10.0009 8.45281 10.0009 9.00281C10.0009 9.55281 9.56086 10.0028 9.00086 10.0028C8.45086 10.0028 8.00086 9.55281 8.00086 9.00281ZM9.53086 15.5328C9.38086 15.6828 9.19086 15.7528 9.00086 15.7528C8.81086 15.7528 8.62086 15.6828 8.47086 15.5328C8.18086 15.2428 8.18086 14.7628 8.47086 14.4728L14.4709 8.47281C14.7609 8.18281 15.2409 8.18281 15.5309 8.47281C15.8209 8.76281 15.8209 9.24281 15.5309 9.53281L9.53086 15.5328ZM15.0009 16.0028C14.4409 16.0028 13.9909 15.5528 13.9909 15.0028C13.9909 14.4528 14.4409 14.0028 14.9909 14.0028C15.5409 14.0028 15.9909 14.4528 15.9909 15.0028C15.9909 15.5528 15.5509 16.0028 15.0009 16.0028Z" />
</svg>
