<svg width="48" height="48" viewBox="0 0 48 48" fill="none" xmlns="http://www.w3.org/2000/svg">
<path d="M25.5 31.8406H26.8C28.1 31.8406 29.18 30.6806 29.18 29.2806C29.18 27.5406 28.56 27.2006 27.54 26.8406L25.52 26.1406V31.8406H25.5Z" />
<path d="M23.9401 3.79691C12.9001 3.83691 3.96013 12.8169 4.00013 23.8569C4.04013 34.8969 13.0201 43.8369 24.0601 43.7969C35.1001 43.7569 44.0401 34.7769 44.0001 23.7369C43.9601 12.6969 34.9801 3.77691 23.9401 3.79691ZM28.5201 23.9969C30.0801 24.5369 32.1801 25.6969 32.1801 29.2769C32.1801 32.3569 29.7601 34.8369 26.8001 34.8369H25.5001V35.9969C25.5001 36.8169 24.8201 37.4969 24.0001 37.4969C23.1801 37.4969 22.5001 36.8169 22.5001 35.9969V34.8369H21.7801C18.5001 34.8369 15.8401 32.0769 15.8401 28.6769C15.8401 27.8569 16.5201 27.1769 17.3401 27.1769C18.1601 27.1769 18.8401 27.8569 18.8401 28.6769C18.8401 30.4169 20.1601 31.8369 21.7801 31.8369H22.5001V25.0769L19.4801 23.9969C17.9201 23.4569 15.8201 22.2969 15.8201 18.7169C15.8201 15.6369 18.2401 13.1569 21.2001 13.1569H22.5001V11.9969C22.5001 11.1769 23.1801 10.4969 24.0001 10.4969C24.8201 10.4969 25.5001 11.1769 25.5001 11.9969V13.1569H26.2201C29.5001 13.1569 32.1601 15.9169 32.1601 19.3169C32.1601 20.1369 31.4801 20.8169 30.6601 20.8169C29.8401 20.8169 29.1601 20.1369 29.1601 19.3169C29.1601 17.5769 27.8401 16.1569 26.2201 16.1569H25.5001V22.9169L28.5201 23.9969Z" />
<path d="M18.8398 18.7362C18.8398 20.4762 19.4598 20.8163 20.4798 21.1763L22.4998 21.8762V16.1562H21.1998C19.8998 16.1562 18.8398 17.3162 18.8398 18.7362Z" />
</svg>
