<svg width="24" height="24" viewBox="0 0 24 24" fill="none" xmlns="http://www.w3.org/2000/svg">
<path d="M21 22H3C2.59 22 2.25 21.66 2.25 21.25C2.25 20.84 2.59 20.5 3 20.5H21C21.41 20.5 21.75 20.84 21.75 21.25C21.75 21.66 21.41 22 21 22Z" fill="white"/>
<path d="M19.0206 3.48162C17.0806 1.54162 15.1806 1.49162 13.1906 3.48162L11.9806 4.69162C11.8806 4.79162 11.8406 4.95162 11.8806 5.09162C12.6406 7.74162 14.7606 9.86162 17.4106 10.6216C17.4506 10.6316 17.4906 10.6416 17.5306 10.6416C17.6406 10.6416 17.7406 10.6016 17.8206 10.5216L19.0206 9.31162C20.0106 8.33162 20.4906 7.38162 20.4906 6.42162C20.5006 5.43162 20.0206 4.47162 19.0206 3.48162Z" fill="white"/>
<path d="M15.6103 11.5269C15.3203 11.3869 15.0403 11.2469 14.7703 11.0869C14.5503 10.9569 14.3403 10.8169 14.1303 10.6669C13.9603 10.5569 13.7603 10.3969 13.5703 10.2369C13.5503 10.2269 13.4803 10.1669 13.4003 10.0869C13.0703 9.80687 12.7003 9.44688 12.3703 9.04688C12.3403 9.02688 12.2903 8.95687 12.2203 8.86687C12.1203 8.74687 11.9503 8.54687 11.8003 8.31687C11.6803 8.16687 11.5403 7.94687 11.4103 7.72687C11.2503 7.45687 11.1103 7.18687 10.9703 6.90687C10.9491 6.86148 10.9286 6.81631 10.9088 6.77141C10.7612 6.43809 10.3265 6.34065 10.0688 6.5984L4.34032 12.3269C4.21032 12.4569 4.09032 12.7069 4.06032 12.8769L3.52032 16.7069C3.42032 17.3869 3.61032 18.0269 4.03032 18.4569C4.39032 18.8069 4.89032 18.9969 5.43032 18.9969C5.55032 18.9969 5.67032 18.9869 5.79032 18.9669L9.63032 18.4269C9.81032 18.3969 10.0603 18.2769 10.1803 18.1469L15.9016 12.4256C16.1612 12.166 16.0633 11.7205 15.7257 11.5765C15.6877 11.5603 15.6492 11.5437 15.6103 11.5269Z" fill="white"/>
</svg>
