<svg width="40" height="40" viewBox="0 0 40 40" fill="none" xmlns="http://www.w3.org/2000/svg">
<path d="M20 0C8.96 0 0 8.96 0 20C0 31.04 8.96 40 20 40C31.04 40 40 31.04 40 20C40 8.96 31.04 0 20 0ZM31.06 11.06L15.62 26.5H21.66C22.48 26.5 23.16 27.18 23.16 28C23.16 28.82 22.48 29.5 21.66 29.5H12C11.18 29.5 10.5 28.82 10.5 28V18.34C10.5 17.52 11.18 16.84 12 16.84C12.82 16.84 13.5 17.52 13.5 18.34V24.38L28.94 8.94C29.24 8.64 29.62 8.5 30 8.5C30.38 8.5 30.76 8.64 31.06 8.94C31.64 9.52 31.64 10.48 31.06 11.06Z" fill="#5CA79F"/>
</svg>
