<svg width="24" height="24" viewBox="0 0 24 24" fill="none" xmlns="http://www.w3.org/2000/svg">
<path d="M19.1105 4.96375C15.2005 1.05375 8.85045 1.05375 4.94045 4.96375C0.960454 8.94375 1.03045 15.4338 5.14045 19.3337C8.94045 22.9237 15.1005 22.9237 18.9005 19.3337C23.0205 15.4338 23.0905 8.94375 19.1105 4.96375ZM16.3805 16.6537C15.1805 17.7937 13.6005 18.3638 12.0205 18.3638C10.4405 18.3638 8.86045 17.7937 7.66045 16.6537C7.36045 16.3637 7.35045 15.8938 7.63045 15.5938C7.92045 15.2937 8.39045 15.2838 8.69045 15.5638C10.5205 17.2938 13.5105 17.3038 15.3505 15.5638C15.6505 15.2838 16.1305 15.2937 16.4105 15.5938C16.7005 15.8938 16.6805 16.3637 16.3805 16.6537Z" />
</svg>
