<svg width="36" height="36" viewBox="0 0 36 36" fill="none" xmlns="http://www.w3.org/2000/svg">
<path d="M11.625 3V11.7H3C3 6.285 6.225 3.03 11.625 3Z" />
<path d="M33 11.7H24.375V3C29.775 3.03 33 6.285 33 11.7Z" />
<path d="M33 24.4531C32.94 29.7781 29.73 32.9731 24.375 33.0031V24.4531H33Z" />
<path d="M11.625 24.4531V33.0031C6.27 32.9731 3.06 29.7781 3 24.4531H11.625Z" />
<path d="M11.625 13.9531H3V22.2031H11.625V13.9531Z" />
<path d="M33 13.9531H24.375V22.2031H33V13.9531Z" />
<path d="M22.125 13.9531H13.875V22.2031H22.125V13.9531Z" />
<path d="M22.125 3H13.875V11.7H22.125V3Z" />
<path d="M22.125 24.4531H13.875V33.0031H22.125V24.4531Z" />
</svg>
