<svg width="40" height="40" viewBox="0 0 40 40" fill="none" xmlns="http://www.w3.org/2000/svg">
<path d="M20 0C8.96 0 0 8.96 0 20C0 31.04 8.96 40 20 40C31.04 40 40 31.04 40 20C40 8.96 31.04 0 20 0ZM30.5 20.66C30.5 21.48 29.82 22.16 29 22.16C28.18 22.16 27.5 21.48 27.5 20.66V14.62L12.06 30.06C11.76 30.36 11.38 30.5 11 30.5C10.62 30.5 10.24 30.36 9.94 30.06C9.36 29.48 9.36 28.52 9.94 27.94L25.38 12.5H19.34C18.52 12.5 17.84 11.82 17.84 11C17.84 10.18 18.52 9.5 19.34 9.5H29C29.82 9.5 30.5 10.18 30.5 11V20.66Z" fill="#5CA79F"/>
</svg>
