<svg width="24" height="24" viewBox="0 0 24 24" fill="none" xmlns="http://www.w3.org/2000/svg">
<path d="M19.7906 4.22031C16.8306 1.27031 12.0306 1.27031 9.09063 4.22031C7.02063 6.27031 6.40063 9.22031 7.20063 11.8203L2.50063 16.5203C2.17063 16.8603 1.94063 17.5303 2.01063 18.0103L2.31063 20.1903C2.42063 20.9103 3.09063 21.5903 3.81063 21.6903L5.99063 21.9903C6.47063 22.0603 7.14063 21.8403 7.48063 21.4903L8.30063 20.6703C8.50063 20.4803 8.50063 20.1603 8.30063 19.9603L6.36063 18.0203C6.07063 17.7303 6.07063 17.2503 6.36063 16.9603C6.65063 16.6703 7.13063 16.6703 7.42063 16.9603L9.37063 18.9103C9.56063 19.1003 9.88063 19.1003 10.0706 18.9103L12.1906 16.8003C14.7806 17.6103 17.7306 16.9803 19.7906 14.9303C22.7406 11.9803 22.7406 7.17031 19.7906 4.22031ZM14.5006 12.0003C13.1206 12.0003 12.0006 10.8803 12.0006 9.50031C12.0006 8.12031 13.1206 7.00031 14.5006 7.00031C15.8806 7.00031 17.0006 8.12031 17.0006 9.50031C17.0006 10.8803 15.8806 12.0003 14.5006 12.0003Z" />
</svg>
