<svg width="40" height="40" viewBox="0 0 40 40" fill="none" xmlns="http://www.w3.org/2000/svg">
<rect width="40" height="40" rx="20" transform="matrix(-1 0 0 1 40 0)" fill="#E46239"/>
<path d="M15.2 10H17.8C21 10 23 12 23 15.2V19.25H16.75C16.34 19.25 16 19.59 16 20C16 20.41 16.34 20.75 16.75 20.75H23V24.8C23 28 21 30 17.8 30H15.21C12.01 30 10.01 28 10.01 24.8V15.2C10 12 12 10 15.2 10Z" fill="white"/>
<path d="M27.4386 19.2538L25.3686 17.1838C25.2186 17.0338 25.1486 16.8437 25.1486 16.6537C25.1486 16.4637 25.2186 16.2638 25.3686 16.1238C25.6586 15.8338 26.1386 15.8338 26.4286 16.1238L29.7786 19.4738C30.0686 19.7638 30.0686 20.2438 29.7786 20.5338L26.4286 23.8838C26.1386 24.1738 25.6586 24.1738 25.3686 23.8838C25.0786 23.5938 25.0786 23.1137 25.3686 22.8238L27.4386 20.7538H22.9986V19.2538H27.4386Z" fill="white"/>
</svg>
