<svg width="24" height="24" viewBox="0 0 24 24" fill="none" xmlns="http://www.w3.org/2000/svg">
<path d="M20.9009 9.85L21.4909 19.74C21.5109 20.01 21.3809 20.19 21.3109 20.27C21.2309 20.36 21.0609 20.5 20.7809 20.5H18.0509L20.2109 9.85H20.9009ZM22.0009 6L21.9909 6.02C22.0109 6.26 21.9909 6.51 21.9309 6.76L14.5609 20.29C14.3209 21.3 13.4209 22 12.3809 22H20.7809C22.0709 22 23.0909 20.91 22.9909 19.62L22.0009 6Z" />
<path d="M11.4502 2.24136C11.5502 1.84136 11.3002 1.43136 10.9002 1.33136C10.5002 1.24136 10.0902 1.48136 9.99023 1.88136L9.49023 3.95136H11.0302L11.4502 2.24136Z" />
<path d="M18.0509 2.2125C18.1409 1.8025 17.8809 1.4125 17.4709 1.3225C17.0709 1.2325 16.6709 1.49249 16.5809 1.90249L16.1309 3.9725H17.6709L18.0509 2.2125Z" />
<path d="M21.8198 5.3275C21.4898 4.5275 20.7098 3.9575 19.7498 3.9575H17.6698L17.1098 6.5475C17.0298 6.8975 16.7198 7.1375 16.3798 7.1375C16.3298 7.1375 16.2698 7.1375 16.2198 7.1175C15.8198 7.0275 15.5598 6.6275 15.6398 6.2275L16.1298 3.9475H11.0298L10.3998 6.5475C10.3198 6.8875 10.0098 7.1175 9.66975 7.1175C9.60975 7.1175 9.54976 7.1075 9.48975 7.0975C9.08976 6.9975 8.83975 6.5975 8.93975 6.1875L9.47975 3.9375H7.44975C6.46975 3.9375 5.59975 4.5775 5.30975 5.5175L1.09975 19.0675C0.659754 20.5175 1.72975 21.9975 3.23975 21.9975H16.3798C17.4198 21.9975 18.3198 21.2975 18.5598 20.2875L21.9298 6.7575C21.9898 6.5075 22.0098 6.2575 21.9898 6.0175C21.9698 5.7775 21.9198 5.5375 21.8198 5.3275ZM14.6998 16.7475H6.69975C6.28975 16.7475 5.94975 16.4075 5.94975 15.9975C5.94975 15.5875 6.28975 15.2475 6.69975 15.2475H14.6998C15.1098 15.2475 15.4498 15.5875 15.4498 15.9975C15.4498 16.4075 15.1098 16.7475 14.6998 16.7475ZM15.6998 12.7475H7.69975C7.28975 12.7475 6.94975 12.4075 6.94975 11.9975C6.94975 11.5875 7.28975 11.2475 7.69975 11.2475H15.6998C16.1098 11.2475 16.4498 11.5875 16.4498 11.9975C16.4498 12.4075 16.1098 12.7475 15.6998 12.7475Z" />
</svg>
