<svg width="24" height="24" viewBox="0 0 24 24" fill="none" xmlns="http://www.w3.org/2000/svg">
<path fill-rule="evenodd" clip-rule="evenodd" d="M16.939 3C18.28 3 19.57 3.53 20.519 4.481C21.469 5.43 22 6.71 22 8.05V15.95C22 18.74 19.73 21 16.939 21H7.06C4.269 21 2 18.74 2 15.95V8.05C2 5.26 4.259 3 7.06 3H16.939ZM18.53 9.53999L18.61 9.45999C18.849 9.16999 18.849 8.74999 18.599 8.45999C18.46 8.31099 18.269 8.21999 18.07 8.19999C17.86 8.18899 17.66 8.25999 17.509 8.39999L13 12C12.42 12.481 11.589 12.481 11 12L6.50001 8.39999C6.18901 8.16999 5.75901 8.19999 5.50001 8.46999C5.23001 8.73999 5.20001 9.16999 5.42901 9.46999L5.56001 9.59999L10.11 13.15C10.67 13.59 11.349 13.83 12.06 13.83C12.769 13.83 13.46 13.59 14.019 13.15L18.53 9.53999Z" />
</svg>
