<svg width="48" height="48" viewBox="0 0 48 48" fill="none" xmlns="http://www.w3.org/2000/svg">
<path d="M36 31.9966V37.9966C36 41.2966 33.3 43.9966 30 43.9966H18C14.7 43.9966 12 41.2966 12 37.9966V29.9766C12 28.8766 12.9 27.9766 14.02 27.9766L19.78 27.9966C21.16 27.9966 22.52 28.2966 23.78 28.8966C25.16 29.5366 26.62 29.9966 28.16 29.9966H34C35.1 29.9966 36 30.8966 36 31.9966Z" />
<path d="M34.82 18.82L30.58 14.58C30.2 14.2 30 13.7 30 13.18V9.82C31.16 9.42 32 8.3 32 7C32 5.34 30.66 4 29 4H19C17.34 4 16 5.34 16 7C16 8.3 16.84 9.42 18 9.82V13.18C18 13.7 17.8 14.2 17.42 14.58L13.18 18.82C12.54 19.46 12 20.76 12 21.66V22.96C12 24.06 12.88 24.96 13.98 24.96L19.8 25C21.76 25 23.74 25.48 25.5 26.4C26.34 26.84 27.3 27 28.24 27H34C35.1 27 36 26.1 36 25V21.66C36 20.76 35.46 19.46 34.82 18.82Z" />
</svg>
