<svg width="56" height="56" viewBox="0 0 56 56" xmlns="http://www.w3.org/2000/svg">
<path d="M39.668 8.16406H16.3346C9.33464 8.16406 4.66797 11.6641 4.66797 19.8307V36.1641C4.66797 44.3307 9.33464 47.8307 16.3346 47.8307H39.668C46.668 47.8307 51.3346 44.3307 51.3346 36.1641V19.8307C51.3346 11.6641 46.668 8.16406 39.668 8.16406ZM18.668 41.4141H11.668C10.7113 41.4141 9.91797 40.6207 9.91797 39.6641C9.91797 38.7074 10.7113 37.9141 11.668 37.9141H18.668C19.6246 37.9141 20.418 38.7074 20.418 39.6641C20.418 40.6207 19.6246 41.4141 18.668 41.4141ZM28.0013 34.9974C24.128 34.9974 21.0013 31.8707 21.0013 27.9974C21.0013 24.1241 24.128 20.9974 28.0013 20.9974C31.8746 20.9974 35.0013 24.1241 35.0013 27.9974C35.0013 31.8707 31.8746 34.9974 28.0013 34.9974ZM44.3346 18.0807H37.3346C36.378 18.0807 35.5846 17.2874 35.5846 16.3307C35.5846 15.3741 36.378 14.5807 37.3346 14.5807H44.3346C45.2913 14.5807 46.0846 15.3741 46.0846 16.3307C46.0846 17.2874 45.2913 18.0807 44.3346 18.0807Z" />
</svg>
