<svg width="24" height="24" viewBox="0 0 24 24" fill="none" xmlns="http://www.w3.org/2000/svg">
<mask id="mask0_3490_10887" style="mask-type:alpha" maskUnits="userSpaceOnUse" x="3" y="1" width="19" height="18">
<path fill-rule="evenodd" clip-rule="evenodd" d="M3 1H21.4969V18.348H3V1Z" fill="white"/>
</mask>
<g mask="url(#mask0_3490_10887)">
<path fill-rule="evenodd" clip-rule="evenodd" d="M12.247 2.5C8.75201 2.5 6.31601 5.238 6.31601 7.695C6.31601 9.774 5.73901 10.735 5.22901 11.583C4.82001 12.264 4.49701 12.802 4.49701 13.971C4.66401 15.857 5.90901 16.848 12.247 16.848C18.55 16.848 19.834 15.813 20 13.906C19.997 12.802 19.674 12.264 19.265 11.583C18.755 10.735 18.178 9.774 18.178 7.695C18.178 5.238 15.742 2.5 12.247 2.5ZM12.247 18.348C7.57101 18.348 3.34501 18.018 3.00001 14.035C2.99701 12.387 3.50001 11.549 3.94401 10.811C4.39301 10.063 4.81601 9.358 4.81601 7.695C4.81601 4.462 7.80201 1 12.247 1C16.692 1 19.678 4.462 19.678 7.695C19.678 9.358 20.101 10.063 20.55 10.811C20.994 11.549 21.497 12.387 21.497 13.971C21.148 18.018 16.923 18.348 12.247 18.348Z" />
</g>
<path fill-rule="evenodd" clip-rule="evenodd" d="M12.199 22.5025H12.197C11.076 22.5015 10.015 22.0075 9.21 21.1105C8.933 20.8035 8.958 20.3285 9.266 20.0525C9.574 19.7745 10.048 19.7995 10.325 20.1085C10.843 20.6855 11.508 21.0025 12.198 21.0025H12.199C12.892 21.0025 13.56 20.6855 14.079 20.1075C14.357 19.8005 14.831 19.7755 15.138 20.0525C15.446 20.3295 15.471 20.8045 15.194 21.1115C14.386 22.0085 13.323 22.5025 12.199 22.5025Z" />
</svg>
