<svg width="24" height="24" viewBox="0 0 24 24" fill="none" xmlns="http://www.w3.org/2000/svg">
<path d="M12.89 5.88281H5.11C3.4 5.88281 2 7.28281 2 8.99281V20.3528C2 21.8028 3.04 22.4228 4.31 21.7128L8.24 19.5228C8.66 19.2928 9.34 19.2928 9.75 19.5228L13.68 21.7128C14.96 22.4128 16 21.8028 16 20.3528V8.99281C16 7.28281 14.6 5.88281 12.89 5.88281Z" />
<path d="M21.9998 5.11V16.47C21.9998 17.92 20.9598 18.53 19.6898 17.83L17.7598 16.75C17.5998 16.66 17.4998 16.49 17.4998 16.31V8.99C17.4998 6.45 15.4298 4.38 12.8898 4.38H8.81984C8.44984 4.38 8.18984 3.99 8.35984 3.67C8.87984 2.68 9.91984 2 11.1098 2H18.8898C20.5998 2 21.9998 3.4 21.9998 5.11Z" />
</svg>
