<svg width="24" height="24" viewBox="0 0 24 24" fill="none" xmlns="http://www.w3.org/2000/svg">
<path d="M19.53 5.53L5.53 19.53C5.51 19.55 5.5 19.56 5.48 19.57C5.1 19.25 4.75 18.9 4.43 18.52C2.91 16.77 2 14.49 2 12C2 6.48 6.48 2 12 2C14.49 2 16.77 2.91 18.52 4.43C18.9 4.75 19.25 5.1 19.57 5.48C19.56 5.5 19.55 5.51 19.53 5.53Z" fill="white"/>
<path d="M22.0008 11.9969C22.0008 17.4869 17.4908 21.9969 12.0008 21.9969C10.5008 21.9969 9.08084 21.6669 7.80084 21.0669C7.18084 20.7769 7.06084 19.9469 7.54084 19.4569L19.4608 7.53693C19.9408 7.05693 20.7808 7.17693 21.0708 7.79693C21.6708 9.06693 22.0008 10.4969 22.0008 11.9969Z" fill="white"/>
<path d="M21.7709 2.23281C21.4709 1.93281 20.9809 1.93281 20.6809 2.23281L2.23086 20.6928C1.93086 20.9928 1.93086 21.4828 2.23086 21.7828C2.38086 21.9228 2.57086 22.0028 2.77086 22.0028C2.97086 22.0028 3.16086 21.9228 3.31086 21.7728L21.7709 3.31281C22.0809 3.01281 22.0809 2.53281 21.7709 2.23281Z" fill="white"/>
</svg>
