<svg width="56" height="56" viewBox="0 0 56 56" fill="none" xmlns="http://www.w3.org/2000/svg">
<path d="M19.3438 14.6741C18.3637 14.6741 17.5938 13.8807 17.5938 12.9241V6.41406C17.5938 5.4574 18.3637 4.66406 19.3438 4.66406C20.3237 4.66406 21.0938 5.4574 21.0938 6.41406V12.9007C21.0938 13.8807 20.3237 14.6741 19.3438 14.6741Z" />
<path d="M36.6562 14.6741C35.6762 14.6741 34.9062 13.8807 34.9062 12.9241V6.41406C34.9062 5.43406 35.6996 4.66406 36.6562 4.66406C37.6362 4.66406 38.4062 5.4574 38.4062 6.41406V12.9007C38.4062 13.8807 37.6362 14.6741 36.6562 14.6741Z" />
<path d="M50.1673 36.9152C50.1673 37.2652 50.0507 37.6152 49.7473 37.9185C46.364 41.3252 40.344 47.3919 36.8907 50.8685C36.5873 51.1952 36.1907 51.3352 35.794 51.3352C35.024 51.3352 34.2773 50.7285 34.2773 49.8419V41.6752C34.2773 38.2685 37.1707 35.4452 40.7173 35.4452C42.934 35.4219 46.014 35.4219 48.6507 35.4219C49.5607 35.4219 50.1673 36.1452 50.1673 36.9152Z" />
<path d="M50.1673 36.9152C50.1673 37.2652 50.0507 37.6152 49.7473 37.9185C46.364 41.3252 40.344 47.3919 36.8907 50.8685C36.5873 51.1952 36.1907 51.3352 35.794 51.3352C35.024 51.3352 34.2773 50.7285 34.2773 49.8419V41.6752C34.2773 38.2685 37.1707 35.4452 40.7173 35.4452C42.934 35.4219 46.014 35.4219 48.6507 35.4219C49.5607 35.4219 50.1673 36.1452 50.1673 36.9152Z" />
<path d="M45.664 10.4974C44.124 9.35406 41.9073 10.4507 41.9073 12.3874V12.6207C41.9073 15.3507 39.9473 17.8707 37.2173 18.1507C34.0673 18.4774 31.4073 16.0041 31.4073 12.9241V10.4974C31.4073 9.21406 30.3573 8.16406 29.074 8.16406H26.9273C25.644 8.16406 24.594 9.21406 24.594 10.4974V12.6207C24.594 14.6741 23.4973 16.5874 21.794 17.5207C21.7007 17.5907 21.6073 17.6374 21.514 17.6841C21.4907 17.6841 21.4907 17.7074 21.4673 17.7074C21.304 17.7774 21.1407 17.8474 20.954 17.9174C20.9073 17.9407 20.8607 17.9407 20.814 17.9641C20.534 18.0574 20.2307 18.1274 19.904 18.1507H19.8807C19.5307 18.1974 19.1573 18.1974 18.8073 18.1507H18.784C18.4573 18.1274 18.154 18.0574 17.874 17.9641C17.6407 17.8941 17.4073 17.8007 17.174 17.6841C15.354 16.8674 14.094 15.0474 14.094 12.9241V12.3874C14.094 10.5907 12.1807 9.5174 10.664 10.2874C10.6407 10.3107 10.6173 10.3107 10.594 10.3341H10.5707C10.4073 10.4507 10.2673 10.5674 10.104 10.6841C9.84732 10.8941 9.59065 11.1041 9.35732 11.3374C9.19399 11.5007 9.03065 11.6641 8.89065 11.8274C8.70398 12.0141 8.54065 12.2007 8.37732 12.4107C8.26065 12.5507 8.12065 12.6907 8.02732 12.8541C7.91065 12.9941 7.81732 13.1574 7.72398 13.2974C7.70065 13.3207 7.67732 13.3441 7.65398 13.3907C7.44398 13.6941 7.25732 14.0441 7.09398 14.3707C7.04732 14.4174 7.02398 14.4407 7.02398 14.4874C6.88398 14.7674 6.74398 15.0474 6.65065 15.3507C6.58065 15.4674 6.55732 15.5607 6.51065 15.6774C6.46398 15.7707 6.44065 15.8874 6.39398 15.9807C6.32398 16.2141 6.25398 16.4707 6.18398 16.7274C6.09065 17.0541 6.02065 17.4041 5.97398 17.7541C5.92732 18.0107 5.90398 18.2674 5.88065 18.5474C5.85732 18.8741 5.83398 19.2007 5.83398 19.5274V39.9674C5.83398 46.2441 10.9207 51.3307 17.1973 51.3307H28.444C29.7273 51.3307 30.7773 50.2807 30.7773 48.9974V41.6707C30.7773 36.3041 35.234 31.9407 40.7173 31.9407C41.954 31.9174 44.964 31.9174 47.834 31.9174C49.1173 31.9174 50.1673 30.8674 50.1673 29.5841V19.5274C50.1673 15.8174 48.394 12.5741 45.664 10.4974ZM25.9707 37.1207C25.7607 37.8207 25.1073 38.3107 24.3373 38.3107H15.844C15.7273 38.3107 15.634 38.3107 15.5407 38.2641C14.7007 38.1474 14.094 37.4241 14.094 36.5607C14.094 35.5807 14.864 34.7874 15.844 34.7874H24.3373C25.294 34.7874 26.0873 35.5807 26.0873 36.5607C26.0873 36.7474 26.064 36.9574 25.9707 37.1207ZM32.4573 28.4641C32.2473 29.1641 31.594 29.6541 30.824 29.6541H15.844C15.7273 29.6541 15.634 29.6541 15.5407 29.6074C14.7007 29.4907 14.094 28.7674 14.094 27.9041C14.094 26.9241 14.864 26.1307 15.844 26.1307H30.824C31.804 26.1307 32.574 26.9241 32.574 27.9041C32.574 28.0907 32.5507 28.3007 32.4573 28.4641Z" />
</svg>
