<svg width="48" height="48" viewBox="0 0 48 48" fill="none" xmlns="http://www.w3.org/2000/svg">
<path d="M18 4C12.76 4 8.5 8.26 8.5 13.5C8.5 18.64 12.52 22.8 17.76 22.98C17.92 22.96 18.08 22.96 18.2 22.98C18.24 22.98 18.26 22.98 18.3 22.98C18.32 22.98 18.32 22.98 18.34 22.98C23.46 22.8 27.48 18.64 27.5 13.5C27.5 8.26 23.24 4 18 4Z" />
<path d="M28.1619 28.2978C22.5819 24.5778 13.4819 24.5778 7.86188 28.2978C5.32188 29.9978 3.92188 32.2978 3.92188 34.7578C3.92188 37.2178 5.32188 39.4978 7.84188 41.1778C10.6419 43.0578 14.3219 43.9978 18.0019 43.9978C21.6819 43.9978 25.3619 43.0578 28.1619 41.1778C30.6819 39.4778 32.0819 37.1978 32.0819 34.7178C32.0619 32.2578 30.6819 29.9778 28.1619 28.2978Z" />
<path d="M39.9787 14.6763C40.2987 18.5563 37.5388 21.9563 33.7188 22.4163C33.6988 22.4163 33.6988 22.4163 33.6788 22.4163H33.6187C33.4987 22.4163 33.3787 22.4163 33.2787 22.4563C31.3387 22.5563 29.5587 21.9363 28.2188 20.7963C30.2787 18.9563 31.4587 16.1963 31.2187 13.1963C31.0787 11.5763 30.5188 10.0963 29.6788 8.83629C30.4388 8.45629 31.3188 8.21629 32.2188 8.13629C36.1388 7.79629 39.6387 10.7163 39.9787 14.6763Z" />
<path d="M43.9805 33.1808C43.8205 35.1208 42.5805 36.8008 40.5005 37.9408C38.5005 39.0408 35.9805 39.5608 33.4805 39.5008C34.9205 38.2008 35.7605 36.5808 35.9205 34.8608C36.1205 32.3808 34.9405 30.0008 32.5805 28.1008C31.2405 27.0408 29.6805 26.2008 27.9805 25.5808C32.4005 24.3008 37.9605 25.1608 41.3805 27.9208C43.2205 29.4008 44.1605 31.2608 43.9805 33.1808Z" />
</svg>
