<svg width="48" height="48" viewBox="0 0 48 48" fill="none" xmlns="http://www.w3.org/2000/svg">
<path d="M42.1781 13.9591C40.4781 12.0791 37.6381 11.1391 33.5181 11.1391H33.0381V11.0591C33.0381 7.69906 33.0381 3.53906 25.5181 3.53906H22.4781C14.9581 3.53906 14.9581 7.71906 14.9581 11.0591V11.1591H14.4781C10.3381 11.1591 7.51812 12.0991 5.81812 13.9791C3.83812 16.1791 3.89812 19.1391 4.09812 21.1591L4.11812 21.2991L4.29558 23.1623C4.30984 23.3121 4.39024 23.4472 4.51587 23.53C4.93542 23.8065 5.92174 24.45 6.47812 24.7591C6.75812 24.9391 7.05812 25.0991 7.35812 25.2591C10.7781 27.1391 14.5381 28.3991 18.3581 29.0191C18.5381 30.8991 19.3581 33.0991 23.7381 33.0991C28.1181 33.0991 28.9781 30.9191 29.1181 28.9791C33.1981 28.3191 37.1381 26.8991 40.6981 24.8191C40.8181 24.7591 40.8981 24.6991 40.9981 24.6391C41.8544 24.1551 42.7454 23.5498 43.5419 22.9684C43.6545 22.8862 43.7269 22.7603 43.7423 22.6218L43.7981 22.1191L43.8981 21.1791C43.9181 21.0591 43.9181 20.9591 43.9381 20.8191C44.0981 18.7991 44.0581 16.0391 42.1781 13.9591ZM26.1781 27.6591C26.1781 29.7791 26.1781 30.0991 23.7181 30.0991C21.2581 30.0991 21.2581 29.7191 21.2581 27.6791V25.1591H26.1781V27.6591ZM17.8181 11.1391V11.0591C17.8181 7.65906 17.8181 6.39906 22.4781 6.39906H25.5181C30.1781 6.39906 30.1781 7.67906 30.1781 11.0591V11.1591H17.8181V11.1391Z" />
<path d="M42.5564 27.081C42.9088 26.9103 43.314 27.1906 43.2786 27.5806L42.4797 36.3814C42.0597 40.3814 40.4197 44.4614 31.6197 44.4614H16.3797C7.57969 44.4614 5.93969 40.3814 5.51969 36.4014L4.75898 28.0336C4.72393 27.6481 5.11919 27.3677 5.47078 27.5296C7.45987 28.4453 12.7173 30.802 15.6163 31.5011C15.7814 31.5409 15.9147 31.6581 15.9806 31.8146C17.1403 34.5715 19.8181 36.0414 23.7397 36.0414C27.6224 36.0414 30.3368 34.515 31.4987 31.7548C31.5646 31.5982 31.6977 31.4811 31.863 31.4412C34.9332 30.7004 40.4892 28.0824 42.5564 27.081Z" />
</svg>
