<svg width="48" height="48" viewBox="0 0 48 48" fill="none" xmlns="http://www.w3.org/2000/svg">
<path d="M28 5.84V22.46C28 24.5 26.34 26.16 24.3 26.16H6C4.9 26.16 4 25.26 4 24.16V11.38C4 7.3 7.3 4 11.38 4H26.14C27.18 4 28 4.82 28 5.84Z" />
<path d="M43 31C43.56 31 44 31.44 44 32V34C44 37.32 41.32 40 38 40C38 36.7 35.3 34 32 34C28.7 34 26 36.7 26 40H22C22 36.7 19.3 34 16 34C12.7 34 10 36.7 10 40C6.68 40 4 37.32 4 34V30C4 28.9 4.9 28 6 28H25C27.76 28 30 25.76 30 23V12C30 10.9 30.9 10 32 10H33.68C35.12 10 36.44 10.78 37.16 12.02L38.44 14.26C38.62 14.58 38.38 15 38 15C35.24 15 33 17.24 33 20V26C33 28.76 35.24 31 38 31H43Z" />
<path d="M16 44C18.2091 44 20 42.2091 20 40C20 37.7909 18.2091 36 16 36C13.7909 36 12 37.7909 12 40C12 42.2091 13.7909 44 16 44Z" />
<path d="M32 44C34.2091 44 36 42.2091 36 40C36 37.7909 34.2091 36 32 36C29.7909 36 28 37.7909 28 40C28 42.2091 29.7909 44 32 44Z" />
<path d="M44 25.06V28H38C36.9 28 36 27.1 36 26V20C36 18.9 36.9 18 38 18H40.58L43.48 23.08C43.82 23.68 44 24.36 44 25.06Z" />
</svg>
