<?xml version="1.0" encoding="UTF-8"?>
<svg width="700pt" height="700pt" version="1.1" viewBox="0 0 700 700" xmlns="http://www.w3.org/2000/svg" xmlns:xlink="http://www.w3.org/1999/xlink">
 <defs>
  <symbol id="t" overflow="visible">
   <path d="m10.781-0.64062c-0.55469 0.28125-1.1328 0.49609-1.7344 0.64062-0.60547 0.15625-1.2344 0.23438-1.8906 0.23438-1.9492 0-3.4961-0.54688-4.6406-1.6406-1.1484-1.0938-1.7188-2.5781-1.7188-4.4531s0.57031-3.3516 1.7188-4.4375c1.1445-1.0938 2.6914-1.6406 4.6406-1.6406 0.65625 0 1.2852 0.074219 1.8906 0.21875 0.60156 0.14844 1.1797 0.35938 1.7344 0.64062v2.4375c-0.5625-0.38281-1.1172-0.66406-1.6562-0.84375-0.54297-0.17578-1.1172-0.26562-1.7188-0.26562-1.0859 0-1.9375 0.35156-2.5625 1.0469-0.61719 0.6875-0.92188 1.6367-0.92188 2.8438 0 1.2109 0.30469 2.1641 0.92188 2.8594 0.625 0.6875 1.4766 1.0312 2.5625 1.0312 0.60156 0 1.1758-0.085938 1.7188-0.26562 0.53906-0.17578 1.0938-0.45703 1.6562-0.84375z"/>
  </symbol>
  <symbol id="b" overflow="visible">
   <path d="m7.8906-6.4062c-0.25-0.11328-0.49609-0.19531-0.73438-0.25-0.24219-0.0625-0.48438-0.09375-0.73438-0.09375-0.73047 0-1.2891 0.23438-1.6719 0.70312-0.38672 0.46875-0.57812 1.1328-0.57812 1.9844v4.0625h-2.8125v-8.7969h2.8125v1.4375c0.35156-0.57031 0.76562-0.98828 1.2344-1.25 0.46875-0.26953 1.0312-0.40625 1.6875-0.40625 0.09375 0 0.19141 0.007813 0.29688 0.015625 0.11328 0.011719 0.27344 0.027344 0.48438 0.046875z"/>
  </symbol>
  <symbol id="a" overflow="visible">
   <path d="m10.141-4.4219v0.79688h-6.5781c0.0625 0.66797 0.29688 1.168 0.70312 1.5 0.41406 0.32422 0.98828 0.48438 1.7188 0.48438 0.59375 0 1.1953-0.085937 1.8125-0.26562 0.625-0.17578 1.2656-0.44141 1.9219-0.79688v2.1719c-0.66797 0.25-1.3359 0.4375-2 0.5625-0.65625 0.13281-1.3203 0.20312-1.9844 0.20312-1.5938 0-2.8359-0.40625-3.7188-1.2188-0.88672-0.8125-1.3281-1.9453-1.3281-3.4062 0-1.4375 0.42969-2.5664 1.2969-3.3906 0.875-0.82031 2.0703-1.2344 3.5938-1.2344 1.375 0 2.4766 0.41797 3.3125 1.25 0.83203 0.83594 1.25 1.9492 1.25 3.3438zm-2.8906-0.9375c0-0.53125-0.15625-0.95703-0.46875-1.2812-0.3125-0.33203-0.71875-0.5-1.2188-0.5-0.55469 0-1 0.15625-1.3438 0.46875-0.33594 0.30469-0.54297 0.74219-0.625 1.3125z"/>
  </symbol>
  <symbol id="k" overflow="visible">
   <path d="m5.2969-3.9531c-0.58594 0-1.0273 0.10156-1.3281 0.29688-0.29297 0.19922-0.4375 0.49219-0.4375 0.875 0 0.35547 0.11719 0.63672 0.35938 0.84375 0.23828 0.19922 0.56641 0.29688 0.98438 0.29688 0.53125 0 0.97656-0.1875 1.3438-0.5625 0.36328-0.38281 0.54688-0.86328 0.54688-1.4375v-0.3125zm4.2969-1.0625v5.0156h-2.8281v-1.2969c-0.38672 0.53125-0.8125 0.92188-1.2812 1.1719-0.46875 0.23828-1.043 0.35938-1.7188 0.35938-0.91797 0-1.6641-0.26562-2.2344-0.79688-0.5625-0.53906-0.84375-1.2344-0.84375-2.0781 0-1.0312 0.35156-1.7852 1.0625-2.2656 0.71875-0.48828 1.832-0.73438 3.3438-0.73438h1.6719v-0.21875c0-0.4375-0.17969-0.75781-0.53125-0.96875-0.35547-0.20703-0.90234-0.3125-1.6406-0.3125-0.60547 0-1.168 0.0625-1.6875 0.1875-0.52344 0.11719-1 0.29297-1.4375 0.53125v-2.1406c0.59375-0.14453 1.1914-0.25391 1.7969-0.32812 0.61328-0.082031 1.2227-0.125 1.8281-0.125 1.5938 0 2.7383 0.3125 3.4375 0.9375 0.70703 0.625 1.0625 1.6484 1.0625 3.0625z"/>
  </symbol>
  <symbol id="c" overflow="visible">
   <path d="m4.4219-11.297v2.5h2.9062v2h-2.9062v3.7344c0 0.41797 0.078125 0.69922 0.23438 0.84375 0.16406 0.13672 0.49219 0.20312 0.98438 0.20312h1.4375v2.0156h-2.4062c-1.1172 0-1.9062-0.22656-2.375-0.6875-0.46094-0.46875-0.6875-1.2578-0.6875-2.375v-3.7344h-1.3906v-2h1.3906v-2.5z"/>
  </symbol>
  <symbol id="j" overflow="visible">
   <path d="m7.3438-7.5156v-4.7188h2.8281v12.234h-2.8281v-1.2656c-0.38672 0.51172-0.8125 0.89062-1.2812 1.1406-0.46875 0.23828-1.0117 0.35938-1.625 0.35938-1.0859 0-1.9766-0.42969-2.6719-1.2969-0.69922-0.86328-1.0469-1.9727-1.0469-3.3281 0-1.3516 0.34766-2.4609 1.0469-3.3281 0.69531-0.86328 1.5859-1.2969 2.6719-1.2969 0.60156 0 1.1406 0.125 1.6094 0.375 0.47656 0.24219 0.91016 0.61719 1.2969 1.125zm-1.8594 5.7031c0.60156 0 1.0625-0.21875 1.375-0.65625 0.32031-0.44531 0.48438-1.0859 0.48438-1.9219 0-0.84375-0.16406-1.4844-0.48438-1.9219-0.3125-0.4375-0.77344-0.65625-1.375-0.65625-0.59375 0-1.0547 0.21875-1.375 0.65625-0.3125 0.4375-0.46875 1.0781-0.46875 1.9219 0 0.83594 0.15625 1.4766 0.46875 1.9219 0.32031 0.4375 0.78125 0.65625 1.375 0.65625z"/>
  </symbol>
  <symbol id="i" overflow="visible">
   <path d="m6.0312-1.8125c0.60156 0 1.0625-0.21875 1.375-0.65625 0.32031-0.44531 0.48438-1.0859 0.48438-1.9219 0-0.84375-0.16406-1.4844-0.48438-1.9219-0.3125-0.4375-0.77344-0.65625-1.375-0.65625-0.60547 0-1.0703 0.22656-1.3906 0.67188-0.3125 0.4375-0.46875 1.0742-0.46875 1.9062 0 0.83594 0.15625 1.4766 0.46875 1.9219 0.32031 0.4375 0.78516 0.65625 1.3906 0.65625zm-1.8594-5.7031c0.38281-0.50781 0.8125-0.88281 1.2812-1.125 0.46875-0.25 1.0078-0.375 1.625-0.375 1.082 0 1.9727 0.43359 2.6719 1.2969 0.69531 0.86719 1.0469 1.9766 1.0469 3.3281 0 1.3555-0.35156 2.4648-1.0469 3.3281-0.69922 0.86719-1.5898 1.2969-2.6719 1.2969-0.61719 0-1.1562-0.12109-1.625-0.35938-0.46875-0.25-0.89844-0.62891-1.2812-1.1406v1.2656h-2.8125v-12.234h2.8125z"/>
  </symbol>
  <symbol id="h" overflow="visible">
   <path d="m0.20312-8.7969h2.8125l2.3594 5.9688 2.0156-5.9688h2.8125l-3.7031 9.625c-0.375 0.97656-0.8125 1.6602-1.3125 2.0469-0.49219 0.39453-1.1406 0.59375-1.9531 0.59375h-1.625v-1.8438h0.875c0.47656 0 0.82812-0.078125 1.0469-0.23438 0.21875-0.14844 0.39062-0.41797 0.51562-0.8125l0.078125-0.23438z"/>
  </symbol>
  <symbol id="g" overflow="visible">
   <path d="m1.4844-11.734h3.0156v10.594c0 1.457-0.39844 2.5469-1.1875 3.2656-0.79297 0.72656-1.9961 1.0938-3.6094 1.0938h-0.60938v-2.2812h0.46875c0.63281 0 1.1133-0.17969 1.4375-0.53125 0.32031-0.35547 0.48438-0.86719 0.48438-1.5469z"/>
  </symbol>
  <symbol id="e" overflow="visible">
   <path d="m10.203-5.3594v5.3594h-2.8281v-4.1094c0-0.75-0.023438-1.2695-0.0625-1.5625-0.03125-0.28906-0.089844-0.50391-0.17188-0.64062-0.10547-0.17578-0.25781-0.31641-0.45312-0.42188-0.1875-0.10156-0.40234-0.15625-0.64062-0.15625-0.58594 0-1.043 0.23047-1.375 0.6875-0.33594 0.44922-0.5 1.0742-0.5 1.875v4.3281h-2.8125v-8.7969h2.8125v1.2812c0.41406-0.50781 0.86328-0.88281 1.3438-1.125 0.47656-0.25 1.0039-0.375 1.5781-0.375 1.0195 0 1.7891 0.3125 2.3125 0.9375 0.53125 0.625 0.79688 1.5312 0.79688 2.7188z"/>
  </symbol>
  <symbol id="s" overflow="visible">
   <path d="m1.3594-8.7969h2.8125v8.7969h-2.8125zm0-3.4375h2.8125v2.2969h-2.8125z"/>
  </symbol>
  <symbol id="f" overflow="visible">
   <path d="m7.1406-12.234v1.8594h-1.5469c-0.40625 0-0.6875 0.074219-0.84375 0.21875-0.15625 0.13672-0.23438 0.38281-0.23438 0.73438v0.625h2.4062v2h-2.4062v6.7969h-2.8125v-6.7969h-1.3906v-2h1.3906v-0.625c0-0.95703 0.26562-1.6641 0.79688-2.125 0.53906-0.45703 1.3672-0.6875 2.4844-0.6875z"/>
  </symbol>
  <symbol id="d" overflow="visible">
   <path d="m5.5469-7c-0.625 0-1.1055 0.22656-1.4375 0.67188-0.32422 0.44922-0.48438 1.0938-0.48438 1.9375s0.16016 1.4922 0.48438 1.9375c0.33203 0.44922 0.8125 0.67188 1.4375 0.67188 0.60156 0 1.0664-0.22266 1.3906-0.67188 0.33203-0.44531 0.5-1.0938 0.5-1.9375s-0.16797-1.4883-0.5-1.9375c-0.32422-0.44531-0.78906-0.67188-1.3906-0.67188zm0-2.0156c1.5078 0 2.6875 0.41406 3.5312 1.2344 0.85156 0.8125 1.2812 1.9453 1.2812 3.3906 0 1.4492-0.42969 2.5859-1.2812 3.4062-0.84375 0.8125-2.0234 1.2188-3.5312 1.2188-1.5234 0-2.7148-0.40625-3.5781-1.2188-0.85547-0.82031-1.2812-1.957-1.2812-3.4062 0-1.4453 0.42578-2.5781 1.2812-3.3906 0.86328-0.82031 2.0547-1.2344 3.5781-1.2344z"/>
  </symbol>
  <symbol id="r" overflow="visible">
   <path d="m9.5156-7.3438c0.35156-0.53906 0.77344-0.95312 1.2656-1.2344 0.48828-0.28906 1.0234-0.4375 1.6094-0.4375 1.0078 0 1.7812 0.3125 2.3125 0.9375s0.79688 1.5312 0.79688 2.7188v5.3594h-2.8281v-4.5938-0.20312c0.007813-0.070313 0.015625-0.17578 0.015625-0.3125 0-0.625-0.09375-1.0781-0.28125-1.3594-0.17969-0.28125-0.47656-0.42188-0.89062-0.42188-0.53125 0-0.94531 0.21875-1.2344 0.65625-0.29297 0.4375-0.44531 1.0742-0.45312 1.9062v4.3281h-2.8281v-4.5938c0-0.96875-0.085938-1.5938-0.25-1.875-0.16797-0.28125-0.46484-0.42188-0.89062-0.42188-0.54297 0-0.96094 0.22656-1.25 0.67188-0.29297 0.4375-0.4375 1.0703-0.4375 1.8906v4.3281h-2.8438v-8.7969h2.8438v1.2812c0.34375-0.5 0.73828-0.875 1.1875-1.125 0.44531-0.25 0.94141-0.375 1.4844-0.375 0.60156 0 1.1328 0.14844 1.5938 0.4375 0.46875 0.29297 0.82812 0.70312 1.0781 1.2344z"/>
  </symbol>
  <symbol id="q" overflow="visible">
   <path d="m10.203-5.3594v5.3594h-2.8281v-4.0938c0-0.75781-0.023438-1.2852-0.0625-1.5781-0.03125-0.28906-0.089844-0.50391-0.17188-0.64062-0.10547-0.17578-0.25781-0.31641-0.45312-0.42188-0.1875-0.10156-0.40234-0.15625-0.64062-0.15625-0.58594 0-1.043 0.23047-1.375 0.6875-0.33594 0.44922-0.5 1.0742-0.5 1.875v4.3281h-2.8125v-12.234h2.8125v4.7188c0.41406-0.50781 0.86328-0.88281 1.3438-1.125 0.47656-0.25 1.0039-0.375 1.5781-0.375 1.0195 0 1.7891 0.3125 2.3125 0.9375 0.53125 0.625 0.79688 1.5312 0.79688 2.7188z"/>
  </symbol>
  <symbol id="p" overflow="visible">
   <path d="m1.4844-11.734h3.375l4.2656 8.0469v-8.0469h2.8594v11.734h-3.375l-4.2656-8.0469v8.0469h-2.8594z"/>
  </symbol>
  <symbol id="o" overflow="visible">
   <path d="m1.25-3.4219v-5.375h2.8438v0.875c0 0.48047-0.007812 1.0781-0.015625 1.7969v1.4375c0 0.71094 0.015625 1.2188 0.046875 1.5312 0.039062 0.3125 0.10156 0.54297 0.1875 0.6875 0.11328 0.17969 0.26562 0.32031 0.45312 0.42188 0.1875 0.09375 0.39844 0.14062 0.64062 0.14062 0.58203 0 1.0391-0.22266 1.375-0.67188 0.34375-0.44531 0.51562-1.0703 0.51562-1.875v-4.3438h2.8125v8.7969h-2.8125v-1.2656c-0.42969 0.51172-0.88281 0.89062-1.3594 1.1406-0.46875 0.23828-0.99219 0.35938-1.5625 0.35938-1.0117 0-1.7891-0.3125-2.3281-0.9375-0.53125-0.625-0.79688-1.5312-0.79688-2.7188z"/>
  </symbol>
  <symbol id="n" overflow="visible">
   <path d="m1.4844-11.734h5.0156c1.4883 0 2.6328 0.33594 3.4375 1 0.80078 0.65625 1.2031 1.6016 1.2031 2.8281 0 1.2305-0.40234 2.1797-1.2031 2.8438-0.80469 0.65625-1.9492 0.98438-3.4375 0.98438h-2v4.0781h-3.0156zm3.0156 2.1875v3.2812h1.6719c0.59375 0 1.0469-0.14062 1.3594-0.42188 0.32031-0.28906 0.48438-0.69531 0.48438-1.2188 0-0.51953-0.16406-0.92188-0.48438-1.2031-0.3125-0.28906-0.76562-0.4375-1.3594-0.4375z"/>
  </symbol>
  <symbol id="m" overflow="visible">
   <path d="m1.3594-8.7969h2.8125v8.6406c0 1.1758-0.28906 2.0703-0.85938 2.6875-0.5625 0.625-1.3828 0.9375-2.4531 0.9375h-1.3906v-1.8438h0.48438c0.53125 0 0.89453-0.12109 1.0938-0.35938 0.20703-0.24219 0.3125-0.71484 0.3125-1.4219zm0-3.4375h2.8125v2.2969h-2.8125z"/>
  </symbol>
  <symbol id="l" overflow="visible">
   <path d="m8.4688-8.5312v2.2969c-0.38672-0.25781-0.77344-0.45312-1.1562-0.57812-0.38672-0.125-0.78906-0.1875-1.2031-0.1875-0.78125 0-1.3906 0.23047-1.8281 0.6875-0.4375 0.46094-0.65625 1.1016-0.65625 1.9219 0 0.82422 0.21875 1.4648 0.65625 1.9219 0.4375 0.46094 1.0469 0.6875 1.8281 0.6875 0.44531 0 0.86328-0.0625 1.25-0.1875 0.39453-0.13281 0.76562-0.33203 1.1094-0.59375v2.2969c-0.44922 0.16797-0.90234 0.28906-1.3594 0.375-0.44922 0.082031-0.89844 0.125-1.3438 0.125-1.5938 0-2.8398-0.40625-3.7344-1.2188-0.89844-0.82031-1.3438-1.957-1.3438-3.4062 0-1.4453 0.44531-2.5781 1.3438-3.3906 0.89453-0.82031 2.1406-1.2344 3.7344-1.2344 0.45703 0 0.91016 0.042969 1.3594 0.125 0.44531 0.085937 0.89453 0.20312 1.3438 0.35938z"/>
  </symbol>
 </defs>
 <path transform="matrix(-5.91e-16 3.2184 -3.2184 -5.91e-16 406.32 159.31)" d="m-18 70h108c2.209 0 4.0004 2.209 4.0004 4.0004v23c0 2.209-1.7915 4.0004-4.0004 4.0004h-108c-2.209 0-4.0004-2.209-4.0004-4.0004v-23c0-2.209 1.7915-4.0004 4.0004-4.0004z" fill="none" stroke="#000" stroke-width="2"/>
 <path transform="matrix(-5.91e-16 3.2184 -3.2184 -5.91e-16 627.39 -54.109)" d="m36.812-6.812h133.38c2.209 0 4.0004 2.209 4.0004 4.0004v179c0 2.209-1.7915 4.0004-4.0004 4.0004h-133.38c-2.209 0-4.0004-2.209-4.0004-4.0004v-179c0-2.209 1.7915-4.0004 4.0004-4.0004z" fill="none" stroke="#000" stroke-width="2"/>
 <path transform="matrix(-5.91e-16 3.2184 -3.2184 -5.91e-16 485.98 -47.471)" d="m45.75 50.25h69.5c2.209 0 4.0004 2.209 4.0004 4.0004v23c0 2.209-1.7915 4.0004-4.0004 4.0004h-69.5c-2.209 0-4.0004-2.209-4.0004-4.0004v-23c0-2.209 1.7915-4.0004 4.0004-4.0004z" fill="none" stroke="#000" stroke-width="2"/>
 <path transform="matrix(-5.91e-16 3.2184 -3.2184 -5.91e-16 586.55 -239.77)" d="m106 35.999h40c2.209 0 4.0004 2.209 4.0004 4.0004v23c0 2.209-1.7915 4.0004-4.0004 4.0004h-40c-2.209 0-4.0004-2.209-4.0004-4.0004v-23c0-2.209 1.7915-4.0004 4.0004-4.0004z" fill="none" stroke="#000" stroke-width="2"/>
 <path transform="matrix(-5.91e-16 3.2184 -3.2184 -5.91e-16 844.02 -278.39)" d="m118 70h108c2.209 0 4.0004 2.209 4.0004 4.0004v23c0 2.209-1.7915 4.0004-4.0004 4.0004h-108c-2.209 0-4.0004-2.209-4.0004-4.0004v-23c0-2.209 1.7915-4.0004 4.0004-4.0004z" fill="none" stroke="#000" stroke-width="2"/>
 <g>
  <use x="15.289063" y="608.277344" xlink:href="#t"/>
  <use x="27.097656" y="608.277344" xlink:href="#b"/>
  <use x="35.03125" y="608.277344" xlink:href="#a"/>
  <use x="45.945312" y="608.277344" xlink:href="#k"/>
  <use x="56.804688" y="608.277344" xlink:href="#c"/>
  <use x="64.5" y="608.277344" xlink:href="#a"/>
  <use x="75.414063" y="608.277344" xlink:href="#j"/>
  <use x="92.535156" y="608.277344" xlink:href="#i"/>
  <use x="104.050781" y="608.277344" xlink:href="#h"/>
  <use x="120.144531" y="608.277344" xlink:href="#g"/>
  <use x="126.132813" y="608.277344" xlink:href="#a"/>
  <use x="137.046875" y="608.277344" xlink:href="#e"/>
  <use x="148.5" y="608.277344" xlink:href="#e"/>
  <use x="159.957031" y="608.277344" xlink:href="#s"/>
  <use x="165.472656" y="608.277344" xlink:href="#f"/>
  <use x="172.476562" y="608.277344" xlink:href="#a"/>
  <use x="183.386719" y="608.277344" xlink:href="#b"/>
  <use x="15.289063" y="624.367188" xlink:href="#f"/>
  <use x="22.289062" y="624.367188" xlink:href="#b"/>
  <use x="30.222656" y="624.367188" xlink:href="#d"/>
  <use x="41.28125" y="624.367188" xlink:href="#r"/>
  <use x="63.648438" y="624.367188" xlink:href="#c"/>
  <use x="71.34375" y="624.367188" xlink:href="#q"/>
  <use x="82.796875" y="624.367188" xlink:href="#a"/>
  <use x="99.3125" y="624.367188" xlink:href="#p"/>
  <use x="112.78125" y="624.367188" xlink:href="#d"/>
  <use x="123.835938" y="624.367188" xlink:href="#o"/>
  <use x="135.292969" y="624.367188" xlink:href="#e"/>
  <use x="152.351562" y="624.367188" xlink:href="#n"/>
  <use x="164.144531" y="624.367188" xlink:href="#b"/>
  <use x="172.082031" y="624.367188" xlink:href="#d"/>
  <use x="183.136719" y="624.367188" xlink:href="#m"/>
  <use x="188.652344" y="624.367188" xlink:href="#a"/>
  <use x="199.566406" y="624.367188" xlink:href="#l"/>
  <use x="209.105469" y="624.367188" xlink:href="#c"/>
 </g>
</svg>
