<svg width="24" height="24" viewBox="0 0 24 24" fill="none" xmlns="http://www.w3.org/2000/svg">
<path d="M8 5.75C7.59 5.75 7.25 5.41 7.25 5V2C7.25 1.59 7.59 1.25 8 1.25C8.41 1.25 8.75 1.59 8.75 2V5C8.75 5.41 8.41 5.75 8 5.75Z" />
<path d="M16 5.75C15.59 5.75 15.25 5.41 15.25 5V2C15.25 1.59 15.59 1.25 16 1.25C16.41 1.25 16.75 1.59 16.75 2V5C16.75 5.41 16.41 5.75 16 5.75Z" />
<path d="M8.5 14.5031C8.24 14.5031 7.98 14.3931 7.79 14.2131C7.61 14.0231 7.5 13.7731 7.5 13.5031C7.5 13.3731 7.53 13.2431 7.58 13.1231C7.63 13.0031 7.7 12.8931 7.79 12.7931C8.16 12.4231 8.83 12.4231 9.21 12.7931C9.39 12.9831 9.5 13.2431 9.5 13.5031C9.5 13.5631 9.49 13.6331 9.48 13.7031C9.47 13.7631 9.45 13.8231 9.42 13.8831C9.4 13.9431 9.37 14.0031 9.33 14.0631C9.29 14.1131 9.25 14.1631 9.21 14.2131C9.02 14.3931 8.76 14.5031 8.5 14.5031Z" />
<path d="M12 14.5023C11.87 14.5023 11.74 14.4723 11.62 14.4223C11.49 14.3723 11.39 14.3023 11.29 14.2123C11.11 14.0223 11 13.7723 11 13.5023C11 13.3723 11.03 13.2423 11.08 13.1223C11.13 13.0023 11.2 12.8923 11.29 12.7923C11.39 12.7023 11.49 12.6323 11.62 12.5823C11.99 12.4323 12.43 12.5123 12.71 12.7923C12.89 12.9823 13 13.2423 13 13.5023C13 13.5623 12.99 13.6323 12.98 13.7023C12.97 13.7623 12.95 13.8223 12.92 13.8823C12.9 13.9423 12.87 14.0023 12.83 14.0623C12.8 14.1123 12.75 14.1623 12.71 14.2123C12.52 14.3923 12.26 14.5023 12 14.5023Z" />
<path d="M8.5 17.9988C8.37 17.9988 8.24 17.9688 8.12 17.9188C7.99 17.8688 7.88 17.7988 7.79 17.7088C7.7 17.6188 7.63 17.5088 7.58 17.3788C7.53 17.2588 7.5 17.1288 7.5 16.9988C7.5 16.8688 7.53 16.7388 7.58 16.6188C7.63 16.4888 7.7 16.3788 7.79 16.2888C7.88 16.1988 7.99 16.1288 8.12 16.0788C8.36 15.9788 8.64 15.9688 8.88 16.0788C9.01 16.1288 9.12 16.1988 9.21 16.2888C9.3 16.3788 9.37 16.4888 9.42 16.6188C9.47 16.7388 9.5 16.8688 9.5 16.9988C9.5 17.1288 9.47 17.2588 9.42 17.3788C9.37 17.5088 9.3 17.6188 9.21 17.7088C9.12 17.7988 9.01 17.8688 8.88 17.9188C8.76 17.9688 8.63 17.9988 8.5 17.9988Z" />
<path d="M20.5 9.84375H3.5C3.09 9.84375 2.75 9.50375 2.75 9.09375C2.75 8.68375 3.09 8.34375 3.5 8.34375H20.5C20.91 8.34375 21.25 8.68375 21.25 9.09375C21.25 9.50375 20.91 9.84375 20.5 9.84375Z" />
<path d="M18 23.75C16.83 23.75 15.72 23.33 14.87 22.56C14.51 22.26 14.19 21.88 13.93 21.44C13.49 20.72 13.25 19.87 13.25 19C13.25 16.38 15.38 14.25 18 14.25C19.36 14.25 20.66 14.84 21.56 15.86C22.33 16.74 22.75 17.85 22.75 19C22.75 19.87 22.51 20.72 22.06 21.45C21.22 22.87 19.66 23.75 18 23.75ZM18 15.75C16.21 15.75 14.75 17.21 14.75 19C14.75 19.59 14.91 20.17 15.22 20.67C15.39 20.97 15.61 21.22 15.85 21.43C16.45 21.97 17.2 22.25 18 22.25C19.15 22.25 20.19 21.66 20.78 20.68C21.09 20.17 21.25 19.6 21.25 19C21.25 18.22 20.96 17.46 20.44 16.85C19.82 16.15 18.93 15.75 18 15.75Z" />
<path d="M17.4289 20.7415C17.2389 20.7415 17.0489 20.6715 16.8989 20.5215L15.9089 19.5315C15.6189 19.2415 15.6189 18.7615 15.9089 18.4715C16.1989 18.1815 16.6789 18.1815 16.9689 18.4715L17.4489 18.9515L19.0489 17.4715C19.3489 17.1915 19.8289 17.2115 20.1089 17.5115C20.3889 17.8115 20.3689 18.2915 20.0689 18.5715L17.9389 20.5415C17.7889 20.6715 17.6089 20.7415 17.4289 20.7415Z" />
<path d="M15.37 22.75H8C4.35 22.75 2.25 20.65 2.25 17V8.5C2.25 4.85 4.35 2.75 8 2.75H16C19.65 2.75 21.75 4.85 21.75 8.5V16.36C21.75 16.67 21.56 16.95 21.26 17.06C20.97 17.17 20.64 17.09 20.43 16.85C19.81 16.15 18.92 15.75 17.99 15.75C16.2 15.75 14.74 17.21 14.74 19C14.74 19.59 14.9 20.17 15.21 20.67C15.38 20.97 15.6 21.22 15.84 21.43C16.08 21.63 16.17 21.96 16.06 22.26C15.97 22.55 15.69 22.75 15.37 22.75ZM8 4.25C5.14 4.25 3.75 5.64 3.75 8.5V17C3.75 19.86 5.14 21.25 8 21.25H13.82C13.45 20.57 13.25 19.8 13.25 19C13.25 16.38 15.38 14.25 18 14.25C18.79 14.25 19.57 14.45 20.25 14.82V8.5C20.25 5.64 18.86 4.25 16 4.25H8Z" />
</svg>
