<svg width="24" height="24" viewBox="0 0 24 24" fill="none" xmlns="http://www.w3.org/2000/svg">
<path d="M15.2405 22.2666H15.1105C10.6705 22.2666 8.5305 20.5166 8.1605 16.5966C8.1205 16.1866 8.4205 15.8166 8.8405 15.7766C9.2505 15.7366 9.6205 16.0466 9.6605 16.4566C9.9505 19.5966 11.4305 20.7666 15.1205 20.7666H15.2505C19.3205 20.7666 20.7605 19.3266 20.7605 15.2566V8.73656C20.7605 4.66656 19.3205 3.22656 15.2505 3.22656H15.1205C11.4105 3.22656 9.9305 4.41656 9.6605 7.61656C9.6105 8.02656 9.2705 8.33656 8.8405 8.29656C8.4205 8.26656 8.1205 7.89656 8.1505 7.48656C8.4905 3.50656 10.6405 1.72656 15.1105 1.72656H15.2405C20.1505 1.72656 22.2505 3.82656 22.2505 8.73656V15.2566C22.2505 20.1666 20.1505 22.2666 15.2405 22.2666Z" />
<path d="M14.88 12.75H2C1.59 12.75 1.25 12.41 1.25 12C1.25 11.59 1.59 11.25 2 11.25H14.88C15.29 11.25 15.63 11.59 15.63 12C15.63 12.41 15.3 12.75 14.88 12.75Z" />
<path d="M12.6498 16.1038C12.4598 16.1038 12.2698 16.0338 12.1198 15.8838C11.8298 15.5938 11.8298 15.1137 12.1198 14.8238L14.9398 12.0038L12.1198 9.18375C11.8298 8.89375 11.8298 8.41375 12.1198 8.12375C12.4098 7.83375 12.8898 7.83375 13.1798 8.12375L16.5298 11.4738C16.8198 11.7638 16.8198 12.2438 16.5298 12.5338L13.1798 15.8838C13.0298 16.0338 12.8398 16.1038 12.6498 16.1038Z" />
</svg>
