<?xml version="1.0" encoding="UTF-8"?>
<svg width="700pt" height="700pt" version="1.1" viewBox="0 0 700 700" xmlns="http://www.w3.org/2000/svg">
 <g fill-rule="evenodd">
  <path d="m140 46.668h93.332c12.887 0 23.332 12.887 23.332 23.332v420c0 12.887-10.445 23.332-23.332 23.332h-93.332c-12.887 0-23.332-12.887-23.332-23.332v-420c0-12.887 10.445-23.332 23.332-23.332z"/>
  <path d="m303.33 46.668h93.332c12.887 0 23.332 12.887 23.332 23.332v233.33c0 12.887-10.445 23.332-23.332 23.332h-93.332c-12.887 0-23.332-12.887-23.332-23.332v-233.33c0-12.887 10.445-23.332 23.332-23.332z"/>
  <path d="m466.67 46.668h93.332c12.887 0 23.332 12.887 23.332 23.332v326.67c0 12.887-10.445 23.332-23.332 23.332h-93.332c-12.887 0-23.332-12.887-23.332-23.332v-326.67c0-12.887 10.445-23.332 23.332-23.332z"/>
 </g>
</svg>
