<?xml version="1.0" encoding="iso-8859-1"?>
<!-- Uploaded to: SVG Repo, www.svgrepo.com, Generator: SVG Repo Mixer Tools -->
<svg height="800px" width="800px" version="1.1" id="Layer_1" xmlns="http://www.w3.org/2000/svg" xmlns:xlink="http://www.w3.org/1999/xlink" 
	 viewBox="0 0 512 512" xml:space="preserve">
<g>
	<g>
		<path style="fill:#231F20;" d="M428.765,0H83.235C71.687,0,62.324,9.362,62.324,20.911v470.177
			c0,11.548,9.362,20.911,20.911,20.911h345.524c0.007,0,0.015,0.001,0.024,0.001c9.558,0,18.682-7.52,20.893-17.038
			c0,0.001,0-459.365,0-474.051C449.676,9.362,440.313,0,428.765,0z M233.942,443.154h-81.683c-11.548,0-20.911-9.362-20.911-20.911
			c0-11.548,9.362-20.911,20.911-20.911h81.683c11.548,0,20.911,9.363,20.911,20.911
			C254.853,433.792,245.491,443.154,233.942,443.154z M359.742,372.927H152.259c-11.548,0-20.911-9.362-20.911-20.911
			c0-11.548,9.362-20.911,20.911-20.911h207.483c11.548,0,20.911,9.362,20.911,20.911
			C380.653,363.565,371.291,372.927,359.742,372.927z M359.742,302.7H152.259c-11.548,0-20.911-9.362-20.911-20.911
			c0-11.548,9.362-20.911,20.911-20.911h207.483c11.548,0,20.911,9.363,20.911,20.911C380.653,293.338,371.291,302.7,359.742,302.7z
			 M380.653,207.787L380.653,207.787c0,11.548-9.363,20.911-20.911,20.911H152.259c-11.548,0-20.911-9.362-20.911-20.911V89.756
			c0-11.548,9.362-20.911,20.911-20.911h207.483c11.548,0,20.911,9.362,20.911,20.911V207.787z"/>
	</g>
</g>
</svg>