<svg width="24" height="24" viewBox="0 0 24 24" fill="none" xmlns="http://www.w3.org/2000/svg">
<path d="M8 11.4031C8 12.1731 8.6 12.8031 9.33 12.8031H10.83C11.47 12.8031 11.99 12.2531 11.99 11.5831C11.99 10.8531 11.67 10.5931 11.2 10.4231L8.8 9.58313C8.32 9.41313 8 9.15313 8 8.42313C8 7.75313 8.52 7.20312 9.16 7.20312H10.66C11.4 7.21312 12 7.83313 12 8.60313" stroke="#292D32" stroke-width="1.5" stroke-linecap="round" stroke-linejoin="round"/>
<path d="M10 12.8516V13.5916" stroke="#292D32" stroke-width="1.5" stroke-linecap="round" stroke-linejoin="round"/>
<path d="M10 6.40625V7.18625" stroke="#292D32" stroke-width="1.5" stroke-linecap="round" stroke-linejoin="round"/>
<path d="M9.99 17.98C14.4028 17.98 17.98 14.4028 17.98 9.99C17.98 5.57724 14.4028 2 9.99 2C5.57724 2 2 5.57724 2 9.99C2 14.4028 5.57724 17.98 9.99 17.98Z" stroke="#292D32" stroke-width="1.5" stroke-linecap="round" stroke-linejoin="round"/>
<path d="M12.9805 19.88C13.8805 21.15 15.3505 21.98 17.0305 21.98C19.7605 21.98 21.9805 19.76 21.9805 17.03C21.9805 15.37 21.1605 13.9 19.9105 13" stroke="#292D32" stroke-width="1.5" stroke-linecap="round" stroke-linejoin="round"/>
</svg>
