<svg width="48" height="48" viewBox="0 0 48 48" fill="none" xmlns="http://www.w3.org/2000/svg">
<path d="M44 30V18C44 14.68 41.32 12 38 12H10C6.68 12 4 14.68 4 18V30C4 33.32 6.68 36 10 36H38C41.32 36 44 33.32 44 30Z" />
<path d="M11.8604 39H36.1404C36.7804 39 37.2404 39.58 37.1204 40.2C36.5804 43.16 34.8404 44 30.6604 44H17.3404C13.1404 44 11.4204 43.16 10.8804 40.2C10.7604 39.58 11.2204 39 11.8604 39Z" />
<path d="M17.3404 4H30.6604C34.8604 4 36.5804 4.84 37.1204 7.8C37.2404 8.42 36.7604 9 36.1404 9H11.8604C11.2204 9 10.7604 8.42 10.8804 7.8C11.4204 4.84 13.1404 4 17.3404 4Z" />
</svg>
