<svg width="48" height="48" viewBox="0 0 48 48" fill="none" xmlns="http://www.w3.org/2000/svg">
<path d="M43.9998 25.7191C43.9998 30.2991 41.6398 34.3591 37.9998 36.9191L35.3198 42.8191C34.6998 44.1591 32.8998 44.4191 31.9598 43.2791L28.9998 39.7191C25.2798 39.7191 21.8598 38.4591 19.2598 36.3591L20.4598 34.9391C29.6998 34.2391 36.9998 26.9191 36.9998 17.9991C36.9998 16.4791 36.7798 14.9791 36.3798 13.5391C40.9198 15.9391 43.9998 20.4991 43.9998 25.7191Z" />
<path d="M32.6 12.14C30.26 7.34 25.04 4 19 4C10.72 4 4 10.26 4 18C4 22.58 6.36 26.64 10 29.2L12.68 35.1C13.3 36.44 15.1 36.68 16.04 35.56L17.14 34.24L19 32C27.28 32 34 25.74 34 18C34 15.9 33.5 13.92 32.6 12.14ZM24 19.5H14C13.18 19.5 12.5 18.82 12.5 18C12.5 17.18 13.18 16.5 14 16.5H24C24.82 16.5 25.5 17.18 25.5 18C25.5 18.82 24.82 19.5 24 19.5Z" />
</svg>
