<svg width="48" height="48" viewBox="0 0 48 48" fill="none" xmlns="http://www.w3.org/2000/svg">
<path d="M41.8197 22.2406V13.4606C41.8197 11.8206 40.5797 9.96062 39.0397 9.34062L27.8997 4.78062C25.3997 3.76063 22.5797 3.76063 20.0797 4.78062L8.93969 9.34062C7.41969 9.96062 6.17969 11.8206 6.17969 13.4606V22.2406C6.17969 32.0206 13.2797 41.1806 22.9797 43.8606C23.6397 44.0406 24.3597 44.0406 25.0197 43.8606C34.7197 41.1806 41.8197 32.0206 41.8197 22.2406ZM25.4997 25.7406V31.0006C25.4997 31.8206 24.8197 32.5006 23.9997 32.5006C23.1797 32.5006 22.4997 31.8206 22.4997 31.0006V25.7406C20.4797 25.1006 18.9997 23.2206 18.9997 21.0006C18.9997 18.2406 21.2397 16.0006 23.9997 16.0006C26.7597 16.0006 28.9997 18.2406 28.9997 21.0006C28.9997 23.2406 27.5197 25.1006 25.4997 25.7406Z" />
</svg>
